<mxfile host="Electron" agent="Mozilla/5.0 (Windows NT 10.0; Win64; x64) AppleWebKit/537.36 (KHTML, like Gecko) draw.io/24.7.17 Chrome/128.0.6613.36 Electron/32.0.1 Safari/537.36" version="24.7.17">
  <diagram id="processText" name="processText">
    <mxGraphModel dx="2345" dy="2013" grid="0" gridSize="10" guides="1" tooltips="1" connect="1" arrows="1" fold="1" page="1" pageScale="1" pageWidth="827" pageHeight="1169" math="0" shadow="0">
      <root>
        <mxCell id="0" />
        <mxCell id="1" parent="0" />
        <mxCell id="Ag3rg4LRfrvqD565A-uZ-29" style="edgeStyle=orthogonalEdgeStyle;rounded=0;orthogonalLoop=1;jettySize=auto;html=1;exitX=0.5;exitY=1;exitDx=0;exitDy=0;" parent="1" source="CUD6jWlpT54n8mRUWq0n-34" target="c8WANCE2L0wFhHwTSPKx-25" edge="1">
          <mxGeometry relative="1" as="geometry" />
        </mxCell>
        <mxCell id="Ag3rg4LRfrvqD565A-uZ-30" value="&lt;span style=&quot;font-size: 12px;&quot;&gt;currentX = 0,&amp;nbsp;&amp;nbsp;&lt;/span&gt;&lt;span style=&quot;font-size: 12px;&quot;&gt;currentY = 0&lt;/span&gt;" style="edgeLabel;html=1;align=center;verticalAlign=middle;resizable=0;points=[];" parent="Ag3rg4LRfrvqD565A-uZ-29" vertex="1" connectable="0">
          <mxGeometry x="-0.1888" y="-1" relative="1" as="geometry">
            <mxPoint as="offset" />
          </mxGeometry>
        </mxCell>
        <mxCell id="CUD6jWlpT54n8mRUWq0n-34" value="InitialisePosition" style="rounded=1;whiteSpace=wrap;html=1;" parent="1" vertex="1">
          <mxGeometry x="218.85000000000002" y="1080" width="94" height="40" as="geometry" />
        </mxCell>
        <mxCell id="Ag3rg4LRfrvqD565A-uZ-61" style="edgeStyle=orthogonalEdgeStyle;rounded=0;orthogonalLoop=1;jettySize=auto;html=1;exitX=0.5;exitY=1;exitDx=0;exitDy=0;" parent="1" source="CUD6jWlpT54n8mRUWq0n-36" target="Ag3rg4LRfrvqD565A-uZ-45" edge="1">
          <mxGeometry relative="1" as="geometry" />
        </mxCell>
        <mxCell id="Ag3rg4LRfrvqD565A-uZ-118" value="store word buffer" style="edgeLabel;html=1;align=center;verticalAlign=middle;resizable=0;points=[];" parent="Ag3rg4LRfrvqD565A-uZ-61" vertex="1" connectable="0">
          <mxGeometry x="-0.2547" y="-2" relative="1" as="geometry">
            <mxPoint as="offset" />
          </mxGeometry>
        </mxCell>
        <mxCell id="CUD6jWlpT54n8mRUWq0n-36" value="&lt;b&gt;&lt;font style=&quot;font-size: 16px;&quot;&gt;ReadWord&lt;/font&gt;&lt;/b&gt;" style="rounded=1;whiteSpace=wrap;html=1;" parent="1" vertex="1">
          <mxGeometry x="249.55" y="1307" width="117" height="30" as="geometry" />
        </mxCell>
        <mxCell id="eq5a8P7IdpTRvWQ2f0uo-68" style="edgeStyle=orthogonalEdgeStyle;rounded=0;orthogonalLoop=1;jettySize=auto;html=1;exitX=0.5;exitY=1;exitDx=0;exitDy=0;entryX=0.5;entryY=0;entryDx=0;entryDy=0;" parent="1" source="eq5a8P7IdpTRvWQ2f0uo-19" target="Ag3rg4LRfrvqD565A-uZ-130" edge="1">
          <mxGeometry relative="1" as="geometry">
            <mxPoint x="208.5" y="-632" as="targetPoint" />
          </mxGeometry>
        </mxCell>
        <mxCell id="eq5a8P7IdpTRvWQ2f0uo-19" value="&lt;b&gt;main()&lt;/b&gt;" style="rounded=1;whiteSpace=wrap;html=1;fillColor=#99FF99;" parent="1" vertex="1">
          <mxGeometry x="393.26" y="-526" width="61" height="27" as="geometry" />
        </mxCell>
        <mxCell id="eq5a8P7IdpTRvWQ2f0uo-41" style="edgeStyle=orthogonalEdgeStyle;rounded=0;orthogonalLoop=1;jettySize=auto;html=1;exitX=0.5;exitY=1;exitDx=0;exitDy=0;entryX=0.5;entryY=0;entryDx=0;entryDy=0;" parent="1" source="eq5a8P7IdpTRvWQ2f0uo-40" target="eq5a8P7IdpTRvWQ2f0uo-42" edge="1">
          <mxGeometry relative="1" as="geometry">
            <mxPoint x="414.4000000000001" y="708.0799560546875" as="targetPoint" />
          </mxGeometry>
        </mxCell>
        <mxCell id="eq5a8P7IdpTRvWQ2f0uo-43" value="printf() &amp;amp; scanf()" style="edgeLabel;html=1;align=center;verticalAlign=middle;resizable=0;points=[];" parent="eq5a8P7IdpTRvWQ2f0uo-41" vertex="1" connectable="0">
          <mxGeometry x="-0.0949" y="-3" relative="1" as="geometry">
            <mxPoint as="offset" />
          </mxGeometry>
        </mxCell>
        <mxCell id="eq5a8P7IdpTRvWQ2f0uo-40" value="User input for text&amp;nbsp; height" style="rounded=1;whiteSpace=wrap;html=1;fillColor=#d5e8d4;strokeColor=#82b366;" parent="1" vertex="1">
          <mxGeometry x="336.55" y="636.36" width="158" height="33" as="geometry" />
        </mxCell>
        <mxCell id="eq5a8P7IdpTRvWQ2f0uo-44" style="edgeStyle=orthogonalEdgeStyle;rounded=0;orthogonalLoop=1;jettySize=auto;html=1;exitX=1;exitY=0.5;exitDx=0;exitDy=0;entryX=0.5;entryY=0;entryDx=0;entryDy=0;" parent="1" source="eq5a8P7IdpTRvWQ2f0uo-42" target="eq5a8P7IdpTRvWQ2f0uo-45" edge="1">
          <mxGeometry relative="1" as="geometry">
            <mxPoint x="620" y="759" as="targetPoint" />
          </mxGeometry>
        </mxCell>
        <mxCell id="eq5a8P7IdpTRvWQ2f0uo-46" value="No" style="edgeLabel;html=1;align=center;verticalAlign=middle;resizable=0;points=[];" parent="eq5a8P7IdpTRvWQ2f0uo-44" vertex="1" connectable="0">
          <mxGeometry x="-0.349" relative="1" as="geometry">
            <mxPoint as="offset" />
          </mxGeometry>
        </mxCell>
        <mxCell id="eq5a8P7IdpTRvWQ2f0uo-49" style="edgeStyle=orthogonalEdgeStyle;rounded=0;orthogonalLoop=1;jettySize=auto;html=1;exitX=0;exitY=0.5;exitDx=0;exitDy=0;curved=1;" parent="1" source="eq5a8P7IdpTRvWQ2f0uo-42" target="eq5a8P7IdpTRvWQ2f0uo-50" edge="1">
          <mxGeometry relative="1" as="geometry">
            <mxPoint x="240.31999511718755" y="794.47998046875" as="targetPoint" />
          </mxGeometry>
        </mxCell>
        <mxCell id="eq5a8P7IdpTRvWQ2f0uo-61" value="Yes" style="edgeLabel;html=1;align=center;verticalAlign=middle;resizable=0;points=[];" parent="eq5a8P7IdpTRvWQ2f0uo-49" vertex="1" connectable="0">
          <mxGeometry x="-0.2241" y="3" relative="1" as="geometry">
            <mxPoint x="7" y="2" as="offset" />
          </mxGeometry>
        </mxCell>
        <mxCell id="eq5a8P7IdpTRvWQ2f0uo-42" value="Input text height&amp;nbsp;&lt;br&gt;&amp;lt;4mm || 10mm&amp;gt;" style="rhombus;whiteSpace=wrap;html=1;rounded=1;shadow=0;" parent="1" vertex="1">
          <mxGeometry x="327.5" y="720" width="173" height="68" as="geometry" />
        </mxCell>
        <mxCell id="eq5a8P7IdpTRvWQ2f0uo-47" style="edgeStyle=orthogonalEdgeStyle;rounded=0;orthogonalLoop=1;jettySize=auto;html=1;exitX=0.5;exitY=1;exitDx=0;exitDy=0;" parent="1" source="eq5a8P7IdpTRvWQ2f0uo-45" target="eq5a8P7IdpTRvWQ2f0uo-48" edge="1">
          <mxGeometry relative="1" as="geometry">
            <mxPoint x="576.8" y="877.039990234375" as="targetPoint" />
          </mxGeometry>
        </mxCell>
        <mxCell id="eq5a8P7IdpTRvWQ2f0uo-45" value="Display error message" style="rounded=1;whiteSpace=wrap;html=1;strokeColor=#FF0000;" parent="1" vertex="1">
          <mxGeometry x="513" y="802" width="128" height="40" as="geometry" />
        </mxCell>
        <mxCell id="eq5a8P7IdpTRvWQ2f0uo-48" value="Return 1" style="rounded=1;whiteSpace=wrap;html=1;fillColor=#fff2cc;strokeColor=#d6b656;" parent="1" vertex="1">
          <mxGeometry x="544.5" y="878" width="65" height="38" as="geometry" />
        </mxCell>
        <mxCell id="eq5a8P7IdpTRvWQ2f0uo-52" value="" style="edgeStyle=orthogonalEdgeStyle;rounded=0;orthogonalLoop=1;jettySize=auto;html=1;" parent="1" source="eq5a8P7IdpTRvWQ2f0uo-50" target="eq5a8P7IdpTRvWQ2f0uo-51" edge="1">
          <mxGeometry relative="1" as="geometry" />
        </mxCell>
        <mxCell id="eq5a8P7IdpTRvWQ2f0uo-53" value="printf() &amp;amp; scanf()" style="edgeLabel;html=1;align=center;verticalAlign=middle;resizable=0;points=[];" parent="eq5a8P7IdpTRvWQ2f0uo-52" vertex="1" connectable="0">
          <mxGeometry x="-0.4203" y="-1" relative="1" as="geometry">
            <mxPoint x="1" y="9" as="offset" />
          </mxGeometry>
        </mxCell>
        <mxCell id="eq5a8P7IdpTRvWQ2f0uo-50" value="GetFileName" style="rounded=1;whiteSpace=wrap;html=1;fillColor=#d5e8d4;strokeColor=#82b366;" parent="1" vertex="1">
          <mxGeometry x="216.19" y="798" width="105.62" height="38" as="geometry" />
        </mxCell>
        <mxCell id="eq5a8P7IdpTRvWQ2f0uo-55" style="edgeStyle=orthogonalEdgeStyle;rounded=0;orthogonalLoop=1;jettySize=auto;html=1;exitX=0.5;exitY=1;exitDx=0;exitDy=0;entryX=0.5;entryY=0;entryDx=0;entryDy=0;curved=1;" parent="1" source="eq5a8P7IdpTRvWQ2f0uo-51" target="eq5a8P7IdpTRvWQ2f0uo-54" edge="1">
          <mxGeometry relative="1" as="geometry" />
        </mxCell>
        <mxCell id="eq5a8P7IdpTRvWQ2f0uo-51" value="Open text file" style="whiteSpace=wrap;html=1;rounded=0;fillColor=#f5f5f5;strokeColor=#666666;fontColor=#333333;" parent="1" vertex="1">
          <mxGeometry x="224" y="880" width="90" height="39" as="geometry" />
        </mxCell>
        <mxCell id="eq5a8P7IdpTRvWQ2f0uo-64" value="" style="edgeStyle=orthogonalEdgeStyle;rounded=0;orthogonalLoop=1;jettySize=auto;html=1;entryX=0.5;entryY=0;entryDx=0;entryDy=0;curved=1;" parent="1" source="eq5a8P7IdpTRvWQ2f0uo-54" target="CUD6jWlpT54n8mRUWq0n-34" edge="1">
          <mxGeometry relative="1" as="geometry">
            <mxPoint x="265.8499999999999" y="1110" as="targetPoint" />
          </mxGeometry>
        </mxCell>
        <mxCell id="eq5a8P7IdpTRvWQ2f0uo-67" value="Yes" style="edgeLabel;html=1;align=center;verticalAlign=middle;resizable=0;points=[];" parent="eq5a8P7IdpTRvWQ2f0uo-64" vertex="1" connectable="0">
          <mxGeometry x="-0.0936" y="-1" relative="1" as="geometry">
            <mxPoint as="offset" />
          </mxGeometry>
        </mxCell>
        <mxCell id="eq5a8P7IdpTRvWQ2f0uo-54" value="File opened?" style="rhombus;whiteSpace=wrap;html=1;rounded=1;shadow=0;strokeColor=#97D077;" parent="1" vertex="1">
          <mxGeometry x="179.35000000000002" y="958" width="173" height="68" as="geometry" />
        </mxCell>
        <mxCell id="eq5a8P7IdpTRvWQ2f0uo-56" style="edgeStyle=orthogonalEdgeStyle;rounded=0;orthogonalLoop=1;jettySize=auto;html=1;exitX=0.957;exitY=0.513;exitDx=0;exitDy=0;entryX=0.5;entryY=0;entryDx=0;entryDy=0;exitPerimeter=0;" parent="1" source="eq5a8P7IdpTRvWQ2f0uo-54" target="eq5a8P7IdpTRvWQ2f0uo-59" edge="1">
          <mxGeometry relative="1" as="geometry">
            <mxPoint x="471.55" y="989" as="targetPoint" />
            <mxPoint x="352.55" y="984" as="sourcePoint" />
            <Array as="points">
              <mxPoint x="430.55" y="993" />
            </Array>
          </mxGeometry>
        </mxCell>
        <mxCell id="eq5a8P7IdpTRvWQ2f0uo-57" value="No" style="edgeLabel;html=1;align=center;verticalAlign=middle;resizable=0;points=[];" parent="eq5a8P7IdpTRvWQ2f0uo-56" vertex="1" connectable="0">
          <mxGeometry x="-0.349" relative="1" as="geometry">
            <mxPoint as="offset" />
          </mxGeometry>
        </mxCell>
        <mxCell id="eq5a8P7IdpTRvWQ2f0uo-58" style="edgeStyle=orthogonalEdgeStyle;rounded=0;orthogonalLoop=1;jettySize=auto;html=1;exitX=0.5;exitY=1;exitDx=0;exitDy=0;" parent="1" source="eq5a8P7IdpTRvWQ2f0uo-59" target="eq5a8P7IdpTRvWQ2f0uo-60" edge="1">
          <mxGeometry relative="1" as="geometry">
            <mxPoint x="430.34999999999997" y="1084.039990234375" as="targetPoint" />
          </mxGeometry>
        </mxCell>
        <mxCell id="eq5a8P7IdpTRvWQ2f0uo-59" value="Display error message" style="rounded=1;whiteSpace=wrap;html=1;strokeColor=#ff0000;" parent="1" vertex="1">
          <mxGeometry x="366.55" y="1009" width="128" height="40" as="geometry" />
        </mxCell>
        <mxCell id="eq5a8P7IdpTRvWQ2f0uo-60" value="Return 1" style="rounded=1;whiteSpace=wrap;html=1;fillColor=#fff2cc;strokeColor=#d6b656;" parent="1" vertex="1">
          <mxGeometry x="398.05" y="1085" width="65" height="38" as="geometry" />
        </mxCell>
        <mxCell id="eq5a8P7IdpTRvWQ2f0uo-113" value="void processWord(char *word, float *current_x, float *current_y)" style="swimlane;whiteSpace=wrap;html=1;fillColor=#dae8fc;strokeColor=#6c8ebf;" parent="1" vertex="1">
          <mxGeometry x="32" y="2341" width="741" height="1919" as="geometry" />
        </mxCell>
        <mxCell id="eq5a8P7IdpTRvWQ2f0uo-118" style="edgeStyle=orthogonalEdgeStyle;rounded=0;orthogonalLoop=1;jettySize=auto;html=1;exitX=1;exitY=0.5;exitDx=0;exitDy=0;entryX=0;entryY=0.5;entryDx=0;entryDy=0;" parent="eq5a8P7IdpTRvWQ2f0uo-113" source="eq5a8P7IdpTRvWQ2f0uo-116" target="Ag3rg4LRfrvqD565A-uZ-88" edge="1">
          <mxGeometry relative="1" as="geometry">
            <mxPoint x="329.3900000000001" y="86" as="targetPoint" />
            <Array as="points">
              <mxPoint x="312" y="65" />
              <mxPoint x="312" y="122" />
            </Array>
          </mxGeometry>
        </mxCell>
        <mxCell id="Ag3rg4LRfrvqD565A-uZ-89" value="Get char from stored word" style="edgeLabel;html=1;align=center;verticalAlign=middle;resizable=0;points=[];" parent="eq5a8P7IdpTRvWQ2f0uo-118" vertex="1" connectable="0">
          <mxGeometry x="-0.6545" y="2" relative="1" as="geometry">
            <mxPoint x="56" y="2" as="offset" />
          </mxGeometry>
        </mxCell>
        <mxCell id="eq5a8P7IdpTRvWQ2f0uo-116" value="&lt;b&gt;processWord()&lt;/b&gt;" style="shape=step;perimeter=stepPerimeter;whiteSpace=wrap;html=1;fixedSize=1;fillColor=#d5e8d4;strokeColor=#82b366;" parent="eq5a8P7IdpTRvWQ2f0uo-113" vertex="1">
          <mxGeometry x="18" y="43" width="143" height="43" as="geometry" />
        </mxCell>
        <mxCell id="uqEPH_UNxIwibqMIHgzM-1" style="edgeStyle=orthogonalEdgeStyle;rounded=0;orthogonalLoop=1;jettySize=auto;html=1;exitX=0.5;exitY=1;exitDx=0;exitDy=0;" edge="1" parent="eq5a8P7IdpTRvWQ2f0uo-113" source="eq5a8P7IdpTRvWQ2f0uo-128" target="Ag3rg4LRfrvqD565A-uZ-108">
          <mxGeometry relative="1" as="geometry" />
        </mxCell>
        <mxCell id="eq5a8P7IdpTRvWQ2f0uo-128" value="Call: generateGCode()" style="swimlane;whiteSpace=wrap;html=1;fillColor=#ffe6cc;strokeColor=#d79b00;" parent="eq5a8P7IdpTRvWQ2f0uo-113" vertex="1">
          <mxGeometry x="54" y="265" width="592.5" height="1510" as="geometry">
            <mxRectangle x="46" y="715" width="156" height="26" as="alternateBounds" />
          </mxGeometry>
        </mxCell>
        <mxCell id="eq5a8P7IdpTRvWQ2f0uo-185" value="Scale and calculate &#xa;x coordinates" style="rounded=0;fillColor=#FFFFFF;strokeColor=#666666;fontColor=#000000;fontStyle=0" parent="eq5a8P7IdpTRvWQ2f0uo-128" vertex="1">
          <mxGeometry x="307.5" y="96" width="120" height="60" as="geometry" />
        </mxCell>
        <mxCell id="eq5a8P7IdpTRvWQ2f0uo-187" value="" style="endArrow=classic;html=1;exitX=0.5;exitY=1;entryX=0.5;entryY=0;fontColor=#FFFFFF;entryDx=0;entryDy=0;" parent="eq5a8P7IdpTRvWQ2f0uo-128" source="eq5a8P7IdpTRvWQ2f0uo-185" target="eq5a8P7IdpTRvWQ2f0uo-193" edge="1">
          <mxGeometry width="50" height="50" relative="1" as="geometry" />
        </mxCell>
        <mxCell id="eq5a8P7IdpTRvWQ2f0uo-202" value="" style="edgeStyle=orthogonalEdgeStyle;rounded=0;orthogonalLoop=1;jettySize=auto;html=1;entryX=0.5;entryY=0;entryDx=0;entryDy=0;curved=1;" parent="eq5a8P7IdpTRvWQ2f0uo-128" source="eq5a8P7IdpTRvWQ2f0uo-188" target="eq5a8P7IdpTRvWQ2f0uo-203" edge="1">
          <mxGeometry relative="1" as="geometry">
            <mxPoint x="463" y="602" as="targetPoint" />
          </mxGeometry>
        </mxCell>
        <mxCell id="eq5a8P7IdpTRvWQ2f0uo-259" value="Down" style="edgeLabel;html=1;align=center;verticalAlign=middle;resizable=0;points=[];" parent="eq5a8P7IdpTRvWQ2f0uo-202" vertex="1" connectable="0">
          <mxGeometry x="0.5973" y="3" relative="1" as="geometry">
            <mxPoint as="offset" />
          </mxGeometry>
        </mxCell>
        <mxCell id="eq5a8P7IdpTRvWQ2f0uo-253" style="edgeStyle=orthogonalEdgeStyle;rounded=0;orthogonalLoop=1;jettySize=auto;html=1;exitX=0.5;exitY=1;exitDx=0;exitDy=0;curved=1;" parent="eq5a8P7IdpTRvWQ2f0uo-128" source="eq5a8P7IdpTRvWQ2f0uo-188" target="eq5a8P7IdpTRvWQ2f0uo-252" edge="1">
          <mxGeometry relative="1" as="geometry" />
        </mxCell>
        <mxCell id="eq5a8P7IdpTRvWQ2f0uo-260" value="Up" style="edgeLabel;html=1;align=center;verticalAlign=middle;resizable=0;points=[];" parent="eq5a8P7IdpTRvWQ2f0uo-253" vertex="1" connectable="0">
          <mxGeometry x="0.5446" y="-7" relative="1" as="geometry">
            <mxPoint x="3" y="7" as="offset" />
          </mxGeometry>
        </mxCell>
        <mxCell id="eq5a8P7IdpTRvWQ2f0uo-188" value="Generate pen&#xa;command" style="rounded=0;fillColor=#FFFFFF;strokeColor=#666666;fontColor=#000000;" parent="eq5a8P7IdpTRvWQ2f0uo-128" vertex="1">
          <mxGeometry x="403" y="462" width="120" height="60" as="geometry" />
        </mxCell>
        <mxCell id="eq5a8P7IdpTRvWQ2f0uo-192" style="edgeStyle=orthogonalEdgeStyle;rounded=0;orthogonalLoop=1;jettySize=auto;html=1;exitX=1;exitY=0.5;exitDx=0;exitDy=0;entryX=0.5;entryY=0;entryDx=0;entryDy=0;" parent="eq5a8P7IdpTRvWQ2f0uo-128" source="eq5a8P7IdpTRvWQ2f0uo-129" target="eq5a8P7IdpTRvWQ2f0uo-185" edge="1">
          <mxGeometry relative="1" as="geometry" />
        </mxCell>
        <mxCell id="c8WANCE2L0wFhHwTSPKx-22" value="New Character" style="edgeLabel;html=1;align=center;verticalAlign=middle;resizable=0;points=[];" parent="eq5a8P7IdpTRvWQ2f0uo-192" vertex="1" connectable="0">
          <mxGeometry x="-0.3261" y="-1" relative="1" as="geometry">
            <mxPoint as="offset" />
          </mxGeometry>
        </mxCell>
        <mxCell id="eq5a8P7IdpTRvWQ2f0uo-129" value="&lt;b&gt;generateGCode()&lt;/b&gt;" style="shape=step;perimeter=stepPerimeter;whiteSpace=wrap;html=1;fixedSize=1;fillColor=#d5e8d4;strokeColor=#82b366;" parent="eq5a8P7IdpTRvWQ2f0uo-128" vertex="1">
          <mxGeometry x="34" y="49" width="143" height="43" as="geometry" />
        </mxCell>
        <mxCell id="eq5a8P7IdpTRvWQ2f0uo-193" value="&lt;span style=&quot;text-wrap: nowrap;&quot;&gt;Scale x and calculate&amp;nbsp;&lt;/span&gt;&lt;br style=&quot;padding: 0px; margin: 0px; text-wrap: nowrap;&quot;&gt;&lt;span style=&quot;text-wrap: nowrap;&quot;&gt;y coordinates&lt;/span&gt;" style="whiteSpace=wrap;html=1;fillColor=#FFFFFF;strokeColor=#666666;fontColor=#000000;rounded=0;fontStyle=0;" parent="eq5a8P7IdpTRvWQ2f0uo-128" vertex="1">
          <mxGeometry x="307.5" y="206" width="120" height="60" as="geometry" />
        </mxCell>
        <mxCell id="eq5a8P7IdpTRvWQ2f0uo-195" style="edgeStyle=orthogonalEdgeStyle;rounded=0;orthogonalLoop=1;jettySize=auto;html=1;exitX=0.5;exitY=1;exitDx=0;exitDy=0;entryX=0.5;entryY=0;entryDx=0;entryDy=0;" parent="eq5a8P7IdpTRvWQ2f0uo-128" source="eq5a8P7IdpTRvWQ2f0uo-193" edge="1">
          <mxGeometry relative="1" as="geometry">
            <mxPoint x="367.50000000000045" y="291" as="targetPoint" />
          </mxGeometry>
        </mxCell>
        <mxCell id="eq5a8P7IdpTRvWQ2f0uo-198" style="edgeStyle=orthogonalEdgeStyle;rounded=0;orthogonalLoop=1;jettySize=auto;html=1;exitX=1;exitY=1;exitDx=0;exitDy=0;" parent="eq5a8P7IdpTRvWQ2f0uo-128" source="eq5a8P7IdpTRvWQ2f0uo-197" target="eq5a8P7IdpTRvWQ2f0uo-188" edge="1">
          <mxGeometry relative="1" as="geometry" />
        </mxCell>
        <mxCell id="eq5a8P7IdpTRvWQ2f0uo-199" value="State Change" style="edgeLabel;html=1;align=center;verticalAlign=middle;resizable=0;points=[];" parent="eq5a8P7IdpTRvWQ2f0uo-198" vertex="1" connectable="0">
          <mxGeometry x="-0.2691" y="2" relative="1" as="geometry">
            <mxPoint as="offset" />
          </mxGeometry>
        </mxCell>
        <mxCell id="eq5a8P7IdpTRvWQ2f0uo-257" style="edgeStyle=orthogonalEdgeStyle;rounded=0;orthogonalLoop=1;jettySize=auto;html=1;curved=1;" parent="eq5a8P7IdpTRvWQ2f0uo-128" source="eq5a8P7IdpTRvWQ2f0uo-197" target="eq5a8P7IdpTRvWQ2f0uo-254" edge="1">
          <mxGeometry relative="1" as="geometry">
            <Array as="points">
              <mxPoint x="218" y="793" />
            </Array>
          </mxGeometry>
        </mxCell>
        <mxCell id="eq5a8P7IdpTRvWQ2f0uo-258" value="No Change" style="edgeLabel;html=1;align=center;verticalAlign=middle;resizable=0;points=[];" parent="eq5a8P7IdpTRvWQ2f0uo-257" vertex="1" connectable="0">
          <mxGeometry x="-0.2146" y="2" relative="1" as="geometry">
            <mxPoint as="offset" />
          </mxGeometry>
        </mxCell>
        <mxCell id="eq5a8P7IdpTRvWQ2f0uo-197" value="&lt;span style=&quot;text-wrap: nowrap;&quot;&gt;Verify Pen Status&lt;/span&gt;" style="rhombus;whiteSpace=wrap;html=1;rounded=1;fillColor=#f8cecc;strokeColor=#b85450;" parent="eq5a8P7IdpTRvWQ2f0uo-128" vertex="1">
          <mxGeometry x="273.5" y="288" width="198" height="128" as="geometry" />
        </mxCell>
        <mxCell id="eq5a8P7IdpTRvWQ2f0uo-255" style="edgeStyle=orthogonalEdgeStyle;rounded=0;orthogonalLoop=1;jettySize=auto;html=1;exitX=0.5;exitY=1;exitDx=0;exitDy=0;entryX=0.5;entryY=0;entryDx=0;entryDy=0;" parent="eq5a8P7IdpTRvWQ2f0uo-128" source="eq5a8P7IdpTRvWQ2f0uo-203" target="eq5a8P7IdpTRvWQ2f0uo-254" edge="1">
          <mxGeometry relative="1" as="geometry" />
        </mxCell>
        <mxCell id="eq5a8P7IdpTRvWQ2f0uo-203" value="Generate S1000" style="rounded=1;whiteSpace=wrap;html=1;" parent="eq5a8P7IdpTRvWQ2f0uo-128" vertex="1">
          <mxGeometry x="333" y="658" width="120" height="42" as="geometry" />
        </mxCell>
        <mxCell id="eq5a8P7IdpTRvWQ2f0uo-256" style="edgeStyle=orthogonalEdgeStyle;rounded=0;orthogonalLoop=1;jettySize=auto;html=1;exitX=0.5;exitY=1;exitDx=0;exitDy=0;entryX=0.5;entryY=0;entryDx=0;entryDy=0;" parent="eq5a8P7IdpTRvWQ2f0uo-128" source="eq5a8P7IdpTRvWQ2f0uo-252" target="eq5a8P7IdpTRvWQ2f0uo-254" edge="1">
          <mxGeometry relative="1" as="geometry" />
        </mxCell>
        <mxCell id="eq5a8P7IdpTRvWQ2f0uo-252" value="Generate &quot;S0&quot;" style="rounded=1;whiteSpace=wrap;html=1;" parent="eq5a8P7IdpTRvWQ2f0uo-128" vertex="1">
          <mxGeometry x="463" y="658" width="120" height="43" as="geometry" />
        </mxCell>
        <mxCell id="eq5a8P7IdpTRvWQ2f0uo-262" style="edgeStyle=orthogonalEdgeStyle;rounded=0;orthogonalLoop=1;jettySize=auto;html=1;exitX=0.25;exitY=1;exitDx=0;exitDy=0;entryX=0.5;entryY=0;entryDx=0;entryDy=0;curved=1;" parent="eq5a8P7IdpTRvWQ2f0uo-128" source="eq5a8P7IdpTRvWQ2f0uo-254" target="eq5a8P7IdpTRvWQ2f0uo-264" edge="1">
          <mxGeometry relative="1" as="geometry">
            <mxPoint x="209.13792682516168" y="902.2758578596445" as="targetPoint" />
          </mxGeometry>
        </mxCell>
        <mxCell id="eq5a8P7IdpTRvWQ2f0uo-269" value="Pen Down" style="edgeLabel;html=1;align=center;verticalAlign=middle;resizable=0;points=[];" parent="eq5a8P7IdpTRvWQ2f0uo-262" vertex="1" connectable="0">
          <mxGeometry x="0.0313" y="-2" relative="1" as="geometry">
            <mxPoint as="offset" />
          </mxGeometry>
        </mxCell>
        <mxCell id="eq5a8P7IdpTRvWQ2f0uo-263" style="edgeStyle=orthogonalEdgeStyle;rounded=0;orthogonalLoop=1;jettySize=auto;html=1;exitX=0.75;exitY=1;exitDx=0;exitDy=0;curved=1;" parent="eq5a8P7IdpTRvWQ2f0uo-128" source="eq5a8P7IdpTRvWQ2f0uo-254" target="eq5a8P7IdpTRvWQ2f0uo-265" edge="1">
          <mxGeometry relative="1" as="geometry">
            <mxPoint x="461.8275777882543" y="895.6551850417568" as="targetPoint" />
          </mxGeometry>
        </mxCell>
        <mxCell id="eq5a8P7IdpTRvWQ2f0uo-270" value="Pen Up" style="edgeLabel;html=1;align=center;verticalAlign=middle;resizable=0;points=[];" parent="eq5a8P7IdpTRvWQ2f0uo-263" vertex="1" connectable="0">
          <mxGeometry x="-0.0736" y="-1" relative="1" as="geometry">
            <mxPoint as="offset" />
          </mxGeometry>
        </mxCell>
        <mxCell id="eq5a8P7IdpTRvWQ2f0uo-254" value="Select Movement Type" style="rounded=1;whiteSpace=wrap;html=1;" parent="eq5a8P7IdpTRvWQ2f0uo-128" vertex="1">
          <mxGeometry x="260" y="774" width="150" height="37" as="geometry" />
        </mxCell>
        <mxCell id="eq5a8P7IdpTRvWQ2f0uo-273" style="edgeStyle=orthogonalEdgeStyle;rounded=0;orthogonalLoop=1;jettySize=auto;html=1;exitX=0.5;exitY=1;exitDx=0;exitDy=0;" parent="eq5a8P7IdpTRvWQ2f0uo-128" source="eq5a8P7IdpTRvWQ2f0uo-264" target="eq5a8P7IdpTRvWQ2f0uo-266" edge="1">
          <mxGeometry relative="1" as="geometry" />
        </mxCell>
        <mxCell id="eq5a8P7IdpTRvWQ2f0uo-264" value="Generate G1 Command&lt;br&gt;(movement with drawing)" style="rounded=1;whiteSpace=wrap;html=1;" parent="eq5a8P7IdpTRvWQ2f0uo-128" vertex="1">
          <mxGeometry x="173" y="888" width="150" height="37" as="geometry" />
        </mxCell>
        <mxCell id="eq5a8P7IdpTRvWQ2f0uo-272" style="edgeStyle=orthogonalEdgeStyle;rounded=0;orthogonalLoop=1;jettySize=auto;html=1;exitX=0.5;exitY=1;exitDx=0;exitDy=0;" parent="eq5a8P7IdpTRvWQ2f0uo-128" source="eq5a8P7IdpTRvWQ2f0uo-265" target="eq5a8P7IdpTRvWQ2f0uo-266" edge="1">
          <mxGeometry relative="1" as="geometry" />
        </mxCell>
        <mxCell id="eq5a8P7IdpTRvWQ2f0uo-265" value="Generate G0 Command&lt;br&gt;(movement without drawing)" style="rounded=1;whiteSpace=wrap;html=1;" parent="eq5a8P7IdpTRvWQ2f0uo-128" vertex="1">
          <mxGeometry x="340" y="888" width="186" height="37" as="geometry" />
        </mxCell>
        <mxCell id="eq5a8P7IdpTRvWQ2f0uo-274" style="edgeStyle=orthogonalEdgeStyle;rounded=0;orthogonalLoop=1;jettySize=auto;html=1;exitX=0.5;exitY=1;exitDx=0;exitDy=0;" parent="eq5a8P7IdpTRvWQ2f0uo-128" source="eq5a8P7IdpTRvWQ2f0uo-266" target="eq5a8P7IdpTRvWQ2f0uo-267" edge="1">
          <mxGeometry relative="1" as="geometry" />
        </mxCell>
        <mxCell id="eq5a8P7IdpTRvWQ2f0uo-266" value="Format Command with position&lt;br&gt;Gx Xnew Ynew" style="rounded=1;whiteSpace=wrap;html=1;" parent="eq5a8P7IdpTRvWQ2f0uo-128" vertex="1">
          <mxGeometry x="232.5" y="996" width="205" height="37" as="geometry" />
        </mxCell>
        <mxCell id="Ag3rg4LRfrvqD565A-uZ-95" value="" style="edgeStyle=orthogonalEdgeStyle;rounded=0;orthogonalLoop=1;jettySize=auto;html=1;" parent="eq5a8P7IdpTRvWQ2f0uo-128" source="eq5a8P7IdpTRvWQ2f0uo-267" target="Ag3rg4LRfrvqD565A-uZ-94" edge="1">
          <mxGeometry relative="1" as="geometry" />
        </mxCell>
        <mxCell id="eq5a8P7IdpTRvWQ2f0uo-267" value="Send to robot via SendCommands" style="rounded=1;whiteSpace=wrap;html=1;" parent="eq5a8P7IdpTRvWQ2f0uo-128" vertex="1">
          <mxGeometry x="236" y="1085" width="198" height="37" as="geometry" />
        </mxCell>
        <mxCell id="eq5a8P7IdpTRvWQ2f0uo-277" value="" style="edgeStyle=orthogonalEdgeStyle;rounded=0;orthogonalLoop=1;jettySize=auto;html=1;" parent="eq5a8P7IdpTRvWQ2f0uo-128" source="eq5a8P7IdpTRvWQ2f0uo-268" target="Ag3rg4LRfrvqD565A-uZ-99" edge="1">
          <mxGeometry relative="1" as="geometry">
            <mxPoint x="335" y="1301" as="targetPoint" />
          </mxGeometry>
        </mxCell>
        <mxCell id="Ag3rg4LRfrvqD565A-uZ-98" value="More chars?" style="edgeLabel;html=1;align=center;verticalAlign=middle;resizable=0;points=[];" parent="eq5a8P7IdpTRvWQ2f0uo-277" vertex="1" connectable="0">
          <mxGeometry x="-0.3174" y="2" relative="1" as="geometry">
            <mxPoint as="offset" />
          </mxGeometry>
        </mxCell>
        <mxCell id="eq5a8P7IdpTRvWQ2f0uo-268" value="Update currnen y and x position" style="rounded=1;whiteSpace=wrap;html=1;" parent="eq5a8P7IdpTRvWQ2f0uo-128" vertex="1">
          <mxGeometry x="229.5" y="1230" width="211" height="37" as="geometry" />
        </mxCell>
        <mxCell id="Ag3rg4LRfrvqD565A-uZ-96" style="edgeStyle=orthogonalEdgeStyle;rounded=0;orthogonalLoop=1;jettySize=auto;html=1;exitX=0.5;exitY=1;exitDx=0;exitDy=0;" parent="eq5a8P7IdpTRvWQ2f0uo-128" source="Ag3rg4LRfrvqD565A-uZ-94" target="eq5a8P7IdpTRvWQ2f0uo-268" edge="1">
          <mxGeometry relative="1" as="geometry" />
        </mxCell>
        <mxCell id="Ag3rg4LRfrvqD565A-uZ-97" value="ok received" style="edgeLabel;html=1;align=center;verticalAlign=middle;resizable=0;points=[];" parent="Ag3rg4LRfrvqD565A-uZ-96" vertex="1" connectable="0">
          <mxGeometry x="0.1399" y="3" relative="1" as="geometry">
            <mxPoint as="offset" />
          </mxGeometry>
        </mxCell>
        <mxCell id="Ag3rg4LRfrvqD565A-uZ-94" value="WaitOK" style="whiteSpace=wrap;html=1;rounded=1;" parent="eq5a8P7IdpTRvWQ2f0uo-128" vertex="1">
          <mxGeometry x="303" y="1154" width="64" height="31" as="geometry" />
        </mxCell>
        <mxCell id="Ag3rg4LRfrvqD565A-uZ-99" value="CheckMore" style="rounded=1;whiteSpace=wrap;html=1;" parent="eq5a8P7IdpTRvWQ2f0uo-128" vertex="1">
          <mxGeometry x="278.75" y="1348" width="112.5" height="28" as="geometry" />
        </mxCell>
        <mxCell id="Ag3rg4LRfrvqD565A-uZ-90" style="edgeStyle=orthogonalEdgeStyle;rounded=0;orthogonalLoop=1;jettySize=auto;html=1;exitX=0.25;exitY=1;exitDx=0;exitDy=0;" parent="eq5a8P7IdpTRvWQ2f0uo-113" source="Ag3rg4LRfrvqD565A-uZ-88" target="Ag3rg4LRfrvqD565A-uZ-91" edge="1">
          <mxGeometry relative="1" as="geometry">
            <mxPoint x="278.99999237060547" y="208.75" as="targetPoint" />
          </mxGeometry>
        </mxCell>
        <mxCell id="Ag3rg4LRfrvqD565A-uZ-92" value="Get from font data" style="edgeLabel;html=1;align=center;verticalAlign=middle;resizable=0;points=[];" parent="Ag3rg4LRfrvqD565A-uZ-90" vertex="1" connectable="0">
          <mxGeometry x="0.0494" y="-1" relative="1" as="geometry">
            <mxPoint as="offset" />
          </mxGeometry>
        </mxCell>
        <mxCell id="Ag3rg4LRfrvqD565A-uZ-88" value="GetChar" style="rounded=1;whiteSpace=wrap;html=1;" parent="eq5a8P7IdpTRvWQ2f0uo-113" vertex="1">
          <mxGeometry x="345" y="107" width="83" height="31" as="geometry" />
        </mxCell>
        <mxCell id="Ag3rg4LRfrvqD565A-uZ-93" style="edgeStyle=orthogonalEdgeStyle;rounded=0;orthogonalLoop=1;jettySize=auto;html=1;exitX=0.5;exitY=1;exitDx=0;exitDy=0;" parent="eq5a8P7IdpTRvWQ2f0uo-113" source="Ag3rg4LRfrvqD565A-uZ-91" target="eq5a8P7IdpTRvWQ2f0uo-128" edge="1">
          <mxGeometry relative="1" as="geometry">
            <Array as="points">
              <mxPoint x="278" y="245" />
              <mxPoint x="350" y="245" />
            </Array>
          </mxGeometry>
        </mxCell>
        <mxCell id="Ag3rg4LRfrvqD565A-uZ-120" value="scale coordinates" style="edgeLabel;html=1;align=center;verticalAlign=middle;resizable=0;points=[];" parent="Ag3rg4LRfrvqD565A-uZ-93" vertex="1" connectable="0">
          <mxGeometry x="-0.1127" y="-1" relative="1" as="geometry">
            <mxPoint as="offset" />
          </mxGeometry>
        </mxCell>
        <mxCell id="Ag3rg4LRfrvqD565A-uZ-91" value="FontFinder" style="rounded=1;whiteSpace=wrap;html=1;" parent="eq5a8P7IdpTRvWQ2f0uo-113" vertex="1">
          <mxGeometry x="236" y="199" width="83" height="31" as="geometry" />
        </mxCell>
        <mxCell id="Ag3rg4LRfrvqD565A-uZ-101" style="edgeStyle=orthogonalEdgeStyle;rounded=0;orthogonalLoop=1;jettySize=auto;html=1;exitX=1;exitY=0.5;exitDx=0;exitDy=0;entryX=1;entryY=0.5;entryDx=0;entryDy=0;" parent="eq5a8P7IdpTRvWQ2f0uo-113" source="Ag3rg4LRfrvqD565A-uZ-99" target="Ag3rg4LRfrvqD565A-uZ-88" edge="1">
          <mxGeometry relative="1" as="geometry">
            <Array as="points">
              <mxPoint x="693" y="1627" />
              <mxPoint x="693" y="123" />
            </Array>
          </mxGeometry>
        </mxCell>
        <mxCell id="Ag3rg4LRfrvqD565A-uZ-102" value="yes" style="edgeLabel;html=1;align=center;verticalAlign=middle;resizable=0;points=[];" parent="Ag3rg4LRfrvqD565A-uZ-101" vertex="1" connectable="0">
          <mxGeometry x="-0.9299" y="2" relative="1" as="geometry">
            <mxPoint x="-35" y="2" as="offset" />
          </mxGeometry>
        </mxCell>
        <mxCell id="Ag3rg4LRfrvqD565A-uZ-108" value="CheckEOF" style="rounded=0;whiteSpace=wrap;html=1;fillColor=#f8cecc;strokeColor=#b85450;" parent="eq5a8P7IdpTRvWQ2f0uo-113" vertex="1">
          <mxGeometry x="313.25" y="1810" width="74" height="40" as="geometry" />
        </mxCell>
        <mxCell id="FxvEv3u-Gim0RPHR_ypv-61" style="edgeStyle=orthogonalEdgeStyle;rounded=0;orthogonalLoop=1;jettySize=auto;html=1;exitX=0.5;exitY=1;exitDx=0;exitDy=0;curved=1;" parent="1" source="Ag3rg4LRfrvqD565A-uZ-165" target="eq5a8P7IdpTRvWQ2f0uo-40" edge="1">
          <mxGeometry relative="1" as="geometry">
            <mxPoint x="152.5" y="336" as="sourcePoint" />
          </mxGeometry>
        </mxCell>
        <mxCell id="FxvEv3u-Gim0RPHR_ypv-71" style="edgeStyle=orthogonalEdgeStyle;rounded=0;orthogonalLoop=1;jettySize=auto;html=1;exitX=0;exitY=0;exitDx=390;exitDy=65;exitPerimeter=0;entryX=0;entryY=0.5;entryDx=0;entryDy=0;curved=1;dashed=1;dashPattern=8 8;" parent="1" source="FxvEv3u-Gim0RPHR_ypv-70" edge="1">
          <mxGeometry relative="1" as="geometry">
            <mxPoint x="242" y="189.5" as="targetPoint" />
          </mxGeometry>
        </mxCell>
        <mxCell id="FxvEv3u-Gim0RPHR_ypv-70" value="&lt;span style=&quot;box-sizing: border-box; border-width: 0px; border-style: solid; border-color: hsl(var(--border-100)); border-image: initial; --tw-border-spacing-x: 0; --tw-border-spacing-y: 0; --tw-translate-x: 0; --tw-translate-y: 0; --tw-rotate: 0; --tw-skew-x: 0; --tw-skew-y: 0; --tw-scale-x: 1; --tw-scale-y: 1; --tw-pan-x: ; --tw-pan-y: ; --tw-pinch-zoom: ; --tw-scroll-snap-strictness: proximity; --tw-gradient-from-position: ; --tw-gradient-via-position: ; --tw-gradient-to-position: ; --tw-ordinal: ; --tw-slashed-zero: ; --tw-numeric-figure: ; --tw-numeric-spacing: ; --tw-numeric-fraction: ; --tw-ring-inset: ; --tw-ring-offset-width: 0px; --tw-ring-offset-color: #fff; --tw-ring-color: hsl(var(--accent-secondary-100)/1); --tw-ring-offset-shadow: 0 0 #0000; --tw-ring-shadow: 0 0 #0000; --tw-shadow: 0 0 #0000; --tw-shadow-colored: 0 0 #0000; --tw-blur: ; --tw-brightness: ; --tw-contrast: ; --tw-grayscale: ; --tw-hue-rotate: ; --tw-invert: ; --tw-saturate: ; --tw-sepia: ; --tw-drop-shadow: ; --tw-backdrop-blur: ; --tw-backdrop-brightness: ; --tw-backdrop-contrast: ; --tw-backdrop-grayscale: ; --tw-backdrop-hue-rotate: ; --tw-backdrop-invert: ; --tw-backdrop-opacity: ; --tw-backdrop-saturate: ; --tw-backdrop-sepia: ; --tw-contain-size: ; --tw-contain-layout: ; --tw-contain-paint: ; --tw-contain-style: ; outline-color: hsl(var(--accent-main-100)); font-family: &amp;quot;Fira Code&amp;quot;, &amp;quot;Fira Mono&amp;quot;, Menlo, Consolas, &amp;quot;DejaVu Sans Mono&amp;quot;, monospace; font-size: 14px; letter-spacing: -0.4px; white-space: pre;&quot;&gt; Allocate array of size numStrokes&lt;br&gt;&lt;/span&gt;&lt;span style=&quot;box-sizing: border-box; border-width: 0px; border-style: solid; border-color: hsl(var(--border-100)); border-image: initial; --tw-border-spacing-x: 0; --tw-border-spacing-y: 0; --tw-translate-x: 0; --tw-translate-y: 0; --tw-rotate: 0; --tw-skew-x: 0; --tw-skew-y: 0; --tw-scale-x: 1; --tw-scale-y: 1; --tw-pan-x: ; --tw-pan-y: ; --tw-pinch-zoom: ; --tw-scroll-snap-strictness: proximity; --tw-gradient-from-position: ; --tw-gradient-via-position: ; --tw-gradient-to-position: ; --tw-ordinal: ; --tw-slashed-zero: ; --tw-numeric-figure: ; --tw-numeric-spacing: ; --tw-numeric-fraction: ; --tw-ring-inset: ; --tw-ring-offset-width: 0px; --tw-ring-offset-color: #fff; --tw-ring-color: hsl(var(--accent-secondary-100)/1); --tw-ring-offset-shadow: 0 0 #0000; --tw-ring-shadow: 0 0 #0000; --tw-shadow: 0 0 #0000; --tw-shadow-colored: 0 0 #0000; --tw-blur: ; --tw-brightness: ; --tw-contrast: ; --tw-grayscale: ; --tw-hue-rotate: ; --tw-invert: ; --tw-saturate: ; --tw-sepia: ; --tw-drop-shadow: ; --tw-backdrop-blur: ; --tw-backdrop-brightness: ; --tw-backdrop-contrast: ; --tw-backdrop-grayscale: ; --tw-backdrop-hue-rotate: ; --tw-backdrop-invert: ; --tw-backdrop-opacity: ; --tw-backdrop-saturate: ; --tw-backdrop-sepia: ; --tw-contain-size: ; --tw-contain-layout: ; --tw-contain-paint: ; --tw-contain-style: ; outline-color: hsl(var(--accent-main-100)); font-family: &amp;quot;Fira Code&amp;quot;, &amp;quot;Fira Mono&amp;quot;, Menlo, Consolas, &amp;quot;DejaVu Sans Mono&amp;quot;, monospace; font-size: 14px; letter-spacing: -0.4px; white-space: pre;&quot;&gt;&lt;span style=&quot;box-sizing: border-box; border-width: 0px; border-style: solid; border-color: hsl(var(--border-100)); border-image: initial; --tw-border-spacing-x: 0; --tw-border-spacing-y: 0; --tw-translate-x: 0; --tw-translate-y: 0; --tw-rotate: 0; --tw-skew-x: 0; --tw-skew-y: 0; --tw-scale-x: 1; --tw-scale-y: 1; --tw-pan-x: ; --tw-pan-y: ; --tw-pinch-zoom: ; --tw-scroll-snap-strictness: proximity; --tw-gradient-from-position: ; --tw-gradient-via-position: ; --tw-gradient-to-position: ; --tw-ordinal: ; --tw-slashed-zero: ; --tw-numeric-figure: ; --tw-numeric-spacing: ; --tw-numeric-fraction: ; --tw-ring-inset: ; --tw-ring-offset-width: 0px; --tw-ring-offset-color: #fff; --tw-ring-color: hsl(var(--accent-secondary-100)/1); --tw-ring-offset-shadow: 0 0 #0000; --tw-ring-shadow: 0 0 #0000; --tw-shadow: 0 0 #0000; --tw-shadow-colored: 0 0 #0000; --tw-blur: ; --tw-brightness: ; --tw-contrast: ; --tw-grayscale: ; --tw-hue-rotate: ; --tw-invert: ; --tw-saturate: ; --tw-sepia: ; --tw-drop-shadow: ; --tw-backdrop-blur: ; --tw-backdrop-brightness: ; --tw-backdrop-contrast: ; --tw-backdrop-grayscale: ; --tw-backdrop-hue-rotate: ; --tw-backdrop-invert: ; --tw-backdrop-opacity: ; --tw-backdrop-saturate: ; --tw-backdrop-sepia: ; --tw-contain-size: ; --tw-contain-layout: ; --tw-contain-paint: ; --tw-contain-style: ; outline-color: hsl(var(--accent-main-100));&quot;&gt;        strokes = calloc&lt;/span&gt;&lt;span style=&quot;box-sizing: border-box; border-width: 0px; border-style: solid; border-color: hsl(var(--border-100)); border-image: initial; --tw-border-spacing-x: 0; --tw-border-spacing-y: 0; --tw-translate-x: 0; --tw-translate-y: 0; --tw-rotate: 0; --tw-skew-x: 0; --tw-skew-y: 0; --tw-scale-x: 1; --tw-scale-y: 1; --tw-pan-x: ; --tw-pan-y: ; --tw-pinch-zoom: ; --tw-scroll-snap-strictness: proximity; --tw-gradient-from-position: ; --tw-gradient-via-position: ; --tw-gradient-to-position: ; --tw-ordinal: ; --tw-slashed-zero: ; --tw-numeric-figure: ; --tw-numeric-spacing: ; --tw-numeric-fraction: ; --tw-ring-inset: ; --tw-ring-offset-width: 0px; --tw-ring-offset-color: #fff; --tw-ring-color: hsl(var(--accent-secondary-100)/1); --tw-ring-offset-shadow: 0 0 #0000; --tw-ring-shadow: 0 0 #0000; --tw-shadow: 0 0 #0000; --tw-shadow-colored: 0 0 #0000; --tw-blur: ; --tw-brightness: ; --tw-contrast: ; --tw-grayscale: ; --tw-hue-rotate: ; --tw-invert: ; --tw-saturate: ; --tw-sepia: ; --tw-drop-shadow: ; --tw-backdrop-blur: ; --tw-backdrop-brightness: ; --tw-backdrop-contrast: ; --tw-backdrop-grayscale: ; --tw-backdrop-hue-rotate: ; --tw-backdrop-invert: ; --tw-backdrop-opacity: ; --tw-backdrop-saturate: ; --tw-backdrop-sepia: ; --tw-contain-size: ; --tw-contain-layout: ; --tw-contain-paint: ; --tw-contain-style: ; outline-color: hsl(var(--accent-main-100));&quot; class=&quot;token&quot;&gt;(&lt;/span&gt;&lt;span style=&quot;box-sizing: border-box; border-width: 0px; border-style: solid; border-color: hsl(var(--border-100)); border-image: initial; --tw-border-spacing-x: 0; --tw-border-spacing-y: 0; --tw-translate-x: 0; --tw-translate-y: 0; --tw-rotate: 0; --tw-skew-x: 0; --tw-skew-y: 0; --tw-scale-x: 1; --tw-scale-y: 1; --tw-pan-x: ; --tw-pan-y: ; --tw-pinch-zoom: ; --tw-scroll-snap-strictness: proximity; --tw-gradient-from-position: ; --tw-gradient-via-position: ; --tw-gradient-to-position: ; --tw-ordinal: ; --tw-slashed-zero: ; --tw-numeric-figure: ; --tw-numeric-spacing: ; --tw-numeric-fraction: ; --tw-ring-inset: ; --tw-ring-offset-width: 0px; --tw-ring-offset-color: #fff; --tw-ring-color: hsl(var(--accent-secondary-100)/1); --tw-ring-offset-shadow: 0 0 #0000; --tw-ring-shadow: 0 0 #0000; --tw-shadow: 0 0 #0000; --tw-shadow-colored: 0 0 #0000; --tw-blur: ; --tw-brightness: ; --tw-contrast: ; --tw-grayscale: ; --tw-hue-rotate: ; --tw-invert: ; --tw-saturate: ; --tw-sepia: ; --tw-drop-shadow: ; --tw-backdrop-blur: ; --tw-backdrop-brightness: ; --tw-backdrop-contrast: ; --tw-backdrop-grayscale: ; --tw-backdrop-hue-rotate: ; --tw-backdrop-invert: ; --tw-backdrop-opacity: ; --tw-backdrop-saturate: ; --tw-backdrop-sepia: ; --tw-contain-size: ; --tw-contain-layout: ; --tw-contain-paint: ; --tw-contain-style: ; outline-color: hsl(var(--accent-main-100));&quot;&gt;numStrokes, sizeof&lt;/span&gt;&lt;span style=&quot;box-sizing: border-box; border-width: 0px; border-style: solid; border-color: hsl(var(--border-100)); border-image: initial; --tw-border-spacing-x: 0; --tw-border-spacing-y: 0; --tw-translate-x: 0; --tw-translate-y: 0; --tw-rotate: 0; --tw-skew-x: 0; --tw-skew-y: 0; --tw-scale-x: 1; --tw-scale-y: 1; --tw-pan-x: ; --tw-pan-y: ; --tw-pinch-zoom: ; --tw-scroll-snap-strictness: proximity; --tw-gradient-from-position: ; --tw-gradient-via-position: ; --tw-gradient-to-position: ; --tw-ordinal: ; --tw-slashed-zero: ; --tw-numeric-figure: ; --tw-numeric-spacing: ; --tw-numeric-fraction: ; --tw-ring-inset: ; --tw-ring-offset-width: 0px; --tw-ring-offset-color: #fff; --tw-ring-color: hsl(var(--accent-secondary-100)/1); --tw-ring-offset-shadow: 0 0 #0000; --tw-ring-shadow: 0 0 #0000; --tw-shadow: 0 0 #0000; --tw-shadow-colored: 0 0 #0000; --tw-blur: ; --tw-brightness: ; --tw-contrast: ; --tw-grayscale: ; --tw-hue-rotate: ; --tw-invert: ; --tw-saturate: ; --tw-sepia: ; --tw-drop-shadow: ; --tw-backdrop-blur: ; --tw-backdrop-brightness: ; --tw-backdrop-contrast: ; --tw-backdrop-grayscale: ; --tw-backdrop-hue-rotate: ; --tw-backdrop-invert: ; --tw-backdrop-opacity: ; --tw-backdrop-saturate: ; --tw-backdrop-sepia: ; --tw-contain-size: ; --tw-contain-layout: ; --tw-contain-paint: ; --tw-contain-style: ; outline-color: hsl(var(--accent-main-100));&quot; class=&quot;token text&quot;&gt;(Stroke))&lt;/span&gt;&lt;/span&gt;" style="shape=note;whiteSpace=wrap;html=1;backgroundOutline=1;darkOpacity=0.05;align=left;fillColor=#fff2cc;strokeColor=#d6b656;" parent="1" vertex="1">
          <mxGeometry x="-236" y="151" width="390" height="100" as="geometry" />
        </mxCell>
        <mxCell id="FxvEv3u-Gim0RPHR_ypv-73" style="edgeStyle=orthogonalEdgeStyle;rounded=0;orthogonalLoop=1;jettySize=auto;html=1;exitX=0.5;exitY=0;exitDx=0;exitDy=0;exitPerimeter=0;entryX=0.75;entryY=1;entryDx=0;entryDy=0;curved=1;dashed=1;" parent="1" source="FxvEv3u-Gim0RPHR_ypv-72" edge="1">
          <mxGeometry relative="1" as="geometry">
            <mxPoint x="425.3850000000007" y="396" as="targetPoint" />
          </mxGeometry>
        </mxCell>
        <mxCell id="FxvEv3u-Gim0RPHR_ypv-72" value="&lt;span style=&quot;box-sizing: border-box; border-width: 0px; border-style: solid; border-color: hsl(var(--border-100)); border-image: initial; --tw-border-spacing-x: 0; --tw-border-spacing-y: 0; --tw-translate-x: 0; --tw-translate-y: 0; --tw-rotate: 0; --tw-skew-x: 0; --tw-skew-y: 0; --tw-scale-x: 1; --tw-scale-y: 1; --tw-pan-x: ; --tw-pan-y: ; --tw-pinch-zoom: ; --tw-scroll-snap-strictness: proximity; --tw-gradient-from-position: ; --tw-gradient-via-position: ; --tw-gradient-to-position: ; --tw-ordinal: ; --tw-slashed-zero: ; --tw-numeric-figure: ; --tw-numeric-spacing: ; --tw-numeric-fraction: ; --tw-ring-inset: ; --tw-ring-offset-width: 0px; --tw-ring-offset-color: #fff; --tw-ring-color: hsl(var(--accent-secondary-100)/1); --tw-ring-offset-shadow: 0 0 #0000; --tw-ring-shadow: 0 0 #0000; --tw-shadow: 0 0 #0000; --tw-shadow-colored: 0 0 #0000; --tw-blur: ; --tw-brightness: ; --tw-contrast: ; --tw-grayscale: ; --tw-hue-rotate: ; --tw-invert: ; --tw-saturate: ; --tw-sepia: ; --tw-drop-shadow: ; --tw-backdrop-blur: ; --tw-backdrop-brightness: ; --tw-backdrop-contrast: ; --tw-backdrop-grayscale: ; --tw-backdrop-hue-rotate: ; --tw-backdrop-invert: ; --tw-backdrop-opacity: ; --tw-backdrop-saturate: ; --tw-backdrop-sepia: ; --tw-contain-size: ; --tw-contain-layout: ; --tw-contain-paint: ; --tw-contain-style: ; outline-color: hsl(var(--accent-main-100)); font-family: &amp;quot;Fira Code&amp;quot;, &amp;quot;Fira Mono&amp;quot;, Menlo, Consolas, &amp;quot;DejaVu Sans Mono&amp;quot;, monospace; font-size: 14px; letter-spacing: -0.4px; white-space: pre;&quot;&gt;&lt;span style=&quot;box-sizing: border-box; border-width: 0px; border-style: solid; border-color: hsl(var(--border-100)); border-image: initial; --tw-border-spacing-x: 0; --tw-border-spacing-y: 0; --tw-translate-x: 0; --tw-translate-y: 0; --tw-rotate: 0; --tw-skew-x: 0; --tw-skew-y: 0; --tw-scale-x: 1; --tw-scale-y: 1; --tw-pan-x: ; --tw-pan-y: ; --tw-pinch-zoom: ; --tw-scroll-snap-strictness: proximity; --tw-gradient-from-position: ; --tw-gradient-via-position: ; --tw-gradient-to-position: ; --tw-ordinal: ; --tw-slashed-zero: ; --tw-numeric-figure: ; --tw-numeric-spacing: ; --tw-numeric-fraction: ; --tw-ring-inset: ; --tw-ring-offset-width: 0px; --tw-ring-offset-color: #fff; --tw-ring-color: hsl(var(--accent-secondary-100)/1); --tw-ring-offset-shadow: 0 0 #0000; --tw-ring-shadow: 0 0 #0000; --tw-shadow: 0 0 #0000; --tw-shadow-colored: 0 0 #0000; --tw-blur: ; --tw-brightness: ; --tw-contrast: ; --tw-grayscale: ; --tw-hue-rotate: ; --tw-invert: ; --tw-saturate: ; --tw-sepia: ; --tw-drop-shadow: ; --tw-backdrop-blur: ; --tw-backdrop-brightness: ; --tw-backdrop-contrast: ; --tw-backdrop-grayscale: ; --tw-backdrop-hue-rotate: ; --tw-backdrop-invert: ; --tw-backdrop-opacity: ; --tw-backdrop-saturate: ; --tw-backdrop-sepia: ; --tw-contain-size: ; --tw-contain-layout: ; --tw-contain-paint: ; --tw-contain-style: ; outline-color: hsl(var(--accent-main-100));&quot;&gt;  Store in memory&lt;/span&gt;&lt;span style=&quot;box-sizing: border-box; border-width: 0px; border-style: solid; border-color: hsl(var(--border-100)); border-image: initial; --tw-border-spacing-x: 0; --tw-border-spacing-y: 0; --tw-translate-x: 0; --tw-translate-y: 0; --tw-rotate: 0; --tw-skew-x: 0; --tw-skew-y: 0; --tw-scale-x: 1; --tw-scale-y: 1; --tw-pan-x: ; --tw-pan-y: ; --tw-pinch-zoom: ; --tw-scroll-snap-strictness: proximity; --tw-gradient-from-position: ; --tw-gradient-via-position: ; --tw-gradient-to-position: ; --tw-ordinal: ; --tw-slashed-zero: ; --tw-numeric-figure: ; --tw-numeric-spacing: ; --tw-numeric-fraction: ; --tw-ring-inset: ; --tw-ring-offset-width: 0px; --tw-ring-offset-color: #fff; --tw-ring-color: hsl(var(--accent-secondary-100)/1); --tw-ring-offset-shadow: 0 0 #0000; --tw-ring-shadow: 0 0 #0000; --tw-shadow: 0 0 #0000; --tw-shadow-colored: 0 0 #0000; --tw-blur: ; --tw-brightness: ; --tw-contrast: ; --tw-grayscale: ; --tw-hue-rotate: ; --tw-invert: ; --tw-saturate: ; --tw-sepia: ; --tw-drop-shadow: ; --tw-backdrop-blur: ; --tw-backdrop-brightness: ; --tw-backdrop-contrast: ; --tw-backdrop-grayscale: ; --tw-backdrop-hue-rotate: ; --tw-backdrop-invert: ; --tw-backdrop-opacity: ; --tw-backdrop-saturate: ; --tw-backdrop-sepia: ; --tw-contain-size: ; --tw-contain-layout: ; --tw-contain-paint: ; --tw-contain-style: ; outline-color: hsl(var(--accent-main-100));&quot; class=&quot;token&quot;&gt;:&lt;/span&gt;&lt;span style=&quot;box-sizing: border-box; border-width: 0px; border-style: solid; border-color: hsl(var(--border-100)); border-image: initial; --tw-border-spacing-x: 0; --tw-border-spacing-y: 0; --tw-translate-x: 0; --tw-translate-y: 0; --tw-rotate: 0; --tw-skew-x: 0; --tw-skew-y: 0; --tw-scale-x: 1; --tw-scale-y: 1; --tw-pan-x: ; --tw-pan-y: ; --tw-pinch-zoom: ; --tw-scroll-snap-strictness: proximity; --tw-gradient-from-position: ; --tw-gradient-via-position: ; --tw-gradient-to-position: ; --tw-ordinal: ; --tw-slashed-zero: ; --tw-numeric-figure: ; --tw-numeric-spacing: ; --tw-numeric-fraction: ; --tw-ring-inset: ; --tw-ring-offset-width: 0px; --tw-ring-offset-color: #fff; --tw-ring-color: hsl(var(--accent-secondary-100)/1); --tw-ring-offset-shadow: 0 0 #0000; --tw-ring-shadow: 0 0 #0000; --tw-shadow: 0 0 #0000; --tw-shadow-colored: 0 0 #0000; --tw-blur: ; --tw-brightness: ; --tw-contrast: ; --tw-grayscale: ; --tw-hue-rotate: ; --tw-invert: ; --tw-saturate: ; --tw-sepia: ; --tw-drop-shadow: ; --tw-backdrop-blur: ; --tw-backdrop-brightness: ; --tw-backdrop-contrast: ; --tw-backdrop-grayscale: ; --tw-backdrop-hue-rotate: ; --tw-backdrop-invert: ; --tw-backdrop-opacity: ; --tw-backdrop-saturate: ; --tw-backdrop-sepia: ; --tw-contain-size: ; --tw-contain-layout: ; --tw-contain-paint: ; --tw-contain-style: ; outline-color: hsl(var(--accent-main-100));&quot;&gt;&lt;br/&gt;&lt;/span&gt;&lt;/span&gt;&lt;span style=&quot;box-sizing: border-box; border-width: 0px; border-style: solid; border-color: hsl(var(--border-100)); border-image: initial; --tw-border-spacing-x: 0; --tw-border-spacing-y: 0; --tw-translate-x: 0; --tw-translate-y: 0; --tw-rotate: 0; --tw-skew-x: 0; --tw-skew-y: 0; --tw-scale-x: 1; --tw-scale-y: 1; --tw-pan-x: ; --tw-pan-y: ; --tw-pinch-zoom: ; --tw-scroll-snap-strictness: proximity; --tw-gradient-from-position: ; --tw-gradient-via-position: ; --tw-gradient-to-position: ; --tw-ordinal: ; --tw-slashed-zero: ; --tw-numeric-figure: ; --tw-numeric-spacing: ; --tw-numeric-fraction: ; --tw-ring-inset: ; --tw-ring-offset-width: 0px; --tw-ring-offset-color: #fff; --tw-ring-color: hsl(var(--accent-secondary-100)/1); --tw-ring-offset-shadow: 0 0 #0000; --tw-ring-shadow: 0 0 #0000; --tw-shadow: 0 0 #0000; --tw-shadow-colored: 0 0 #0000; --tw-blur: ; --tw-brightness: ; --tw-contrast: ; --tw-grayscale: ; --tw-hue-rotate: ; --tw-invert: ; --tw-saturate: ; --tw-sepia: ; --tw-drop-shadow: ; --tw-backdrop-blur: ; --tw-backdrop-brightness: ; --tw-backdrop-contrast: ; --tw-backdrop-grayscale: ; --tw-backdrop-hue-rotate: ; --tw-backdrop-invert: ; --tw-backdrop-opacity: ; --tw-backdrop-saturate: ; --tw-backdrop-sepia: ; --tw-contain-size: ; --tw-contain-layout: ; --tw-contain-paint: ; --tw-contain-style: ; outline-color: hsl(var(--accent-main-100)); font-family: &amp;quot;Fira Code&amp;quot;, &amp;quot;Fira Mono&amp;quot;, Menlo, Consolas, &amp;quot;DejaVu Sans Mono&amp;quot;, monospace; font-size: 14px; letter-spacing: -0.4px; white-space: pre;&quot;&gt;&lt;span style=&quot;box-sizing: border-box; border-width: 0px; border-style: solid; border-color: hsl(var(--border-100)); border-image: initial; --tw-border-spacing-x: 0; --tw-border-spacing-y: 0; --tw-translate-x: 0; --tw-translate-y: 0; --tw-rotate: 0; --tw-skew-x: 0; --tw-skew-y: 0; --tw-scale-x: 1; --tw-scale-y: 1; --tw-pan-x: ; --tw-pan-y: ; --tw-pinch-zoom: ; --tw-scroll-snap-strictness: proximity; --tw-gradient-from-position: ; --tw-gradient-via-position: ; --tw-gradient-to-position: ; --tw-ordinal: ; --tw-slashed-zero: ; --tw-numeric-figure: ; --tw-numeric-spacing: ; --tw-numeric-fraction: ; --tw-ring-inset: ; --tw-ring-offset-width: 0px; --tw-ring-offset-color: #fff; --tw-ring-color: hsl(var(--accent-secondary-100)/1); --tw-ring-offset-shadow: 0 0 #0000; --tw-ring-shadow: 0 0 #0000; --tw-shadow: 0 0 #0000; --tw-shadow-colored: 0 0 #0000; --tw-blur: ; --tw-brightness: ; --tw-contrast: ; --tw-grayscale: ; --tw-hue-rotate: ; --tw-invert: ; --tw-saturate: ; --tw-sepia: ; --tw-drop-shadow: ; --tw-backdrop-blur: ; --tw-backdrop-brightness: ; --tw-backdrop-contrast: ; --tw-backdrop-grayscale: ; --tw-backdrop-hue-rotate: ; --tw-backdrop-invert: ; --tw-backdrop-opacity: ; --tw-backdrop-saturate: ; --tw-backdrop-sepia: ; --tw-contain-size: ; --tw-contain-layout: ; --tw-contain-paint: ; --tw-contain-style: ; outline-color: hsl(var(--accent-main-100));&quot;&gt;        chars&lt;/span&gt;&lt;span style=&quot;box-sizing: border-box; border-width: 0px; border-style: solid; border-color: hsl(var(--border-100)); border-image: initial; --tw-border-spacing-x: 0; --tw-border-spacing-y: 0; --tw-translate-x: 0; --tw-translate-y: 0; --tw-rotate: 0; --tw-skew-x: 0; --tw-skew-y: 0; --tw-scale-x: 1; --tw-scale-y: 1; --tw-pan-x: ; --tw-pan-y: ; --tw-pinch-zoom: ; --tw-scroll-snap-strictness: proximity; --tw-gradient-from-position: ; --tw-gradient-via-position: ; --tw-gradient-to-position: ; --tw-ordinal: ; --tw-slashed-zero: ; --tw-numeric-figure: ; --tw-numeric-spacing: ; --tw-numeric-fraction: ; --tw-ring-inset: ; --tw-ring-offset-width: 0px; --tw-ring-offset-color: #fff; --tw-ring-color: hsl(var(--accent-secondary-100)/1); --tw-ring-offset-shadow: 0 0 #0000; --tw-ring-shadow: 0 0 #0000; --tw-shadow: 0 0 #0000; --tw-shadow-colored: 0 0 #0000; --tw-blur: ; --tw-brightness: ; --tw-contrast: ; --tw-grayscale: ; --tw-hue-rotate: ; --tw-invert: ; --tw-saturate: ; --tw-sepia: ; --tw-drop-shadow: ; --tw-backdrop-blur: ; --tw-backdrop-brightness: ; --tw-backdrop-contrast: ; --tw-backdrop-grayscale: ; --tw-backdrop-hue-rotate: ; --tw-backdrop-invert: ; --tw-backdrop-opacity: ; --tw-backdrop-saturate: ; --tw-backdrop-sepia: ; --tw-contain-size: ; --tw-contain-layout: ; --tw-contain-paint: ; --tw-contain-style: ; outline-color: hsl(var(--accent-main-100));&quot; class=&quot;token text&quot;&gt;[ascii]&lt;/span&gt;&lt;span style=&quot;box-sizing: border-box; border-width: 0px; border-style: solid; border-color: hsl(var(--border-100)); border-image: initial; --tw-border-spacing-x: 0; --tw-border-spacing-y: 0; --tw-translate-x: 0; --tw-translate-y: 0; --tw-rotate: 0; --tw-skew-x: 0; --tw-skew-y: 0; --tw-scale-x: 1; --tw-scale-y: 1; --tw-pan-x: ; --tw-pan-y: ; --tw-pinch-zoom: ; --tw-scroll-snap-strictness: proximity; --tw-gradient-from-position: ; --tw-gradient-via-position: ; --tw-gradient-to-position: ; --tw-ordinal: ; --tw-slashed-zero: ; --tw-numeric-figure: ; --tw-numeric-spacing: ; --tw-numeric-fraction: ; --tw-ring-inset: ; --tw-ring-offset-width: 0px; --tw-ring-offset-color: #fff; --tw-ring-color: hsl(var(--accent-secondary-100)/1); --tw-ring-offset-shadow: 0 0 #0000; --tw-ring-shadow: 0 0 #0000; --tw-shadow: 0 0 #0000; --tw-shadow-colored: 0 0 #0000; --tw-blur: ; --tw-brightness: ; --tw-contrast: ; --tw-grayscale: ; --tw-hue-rotate: ; --tw-invert: ; --tw-saturate: ; --tw-sepia: ; --tw-drop-shadow: ; --tw-backdrop-blur: ; --tw-backdrop-brightness: ; --tw-backdrop-contrast: ; --tw-backdrop-grayscale: ; --tw-backdrop-hue-rotate: ; --tw-backdrop-invert: ; --tw-backdrop-opacity: ; --tw-backdrop-saturate: ; --tw-backdrop-sepia: ; --tw-contain-size: ; --tw-contain-layout: ; --tw-contain-paint: ; --tw-contain-style: ; outline-color: hsl(var(--accent-main-100));&quot;&gt;.strokes&lt;/span&gt;&lt;span style=&quot;box-sizing: border-box; border-width: 0px; border-style: solid; border-color: hsl(var(--border-100)); border-image: initial; --tw-border-spacing-x: 0; --tw-border-spacing-y: 0; --tw-translate-x: 0; --tw-translate-y: 0; --tw-rotate: 0; --tw-skew-x: 0; --tw-skew-y: 0; --tw-scale-x: 1; --tw-scale-y: 1; --tw-pan-x: ; --tw-pan-y: ; --tw-pinch-zoom: ; --tw-scroll-snap-strictness: proximity; --tw-gradient-from-position: ; --tw-gradient-via-position: ; --tw-gradient-to-position: ; --tw-ordinal: ; --tw-slashed-zero: ; --tw-numeric-figure: ; --tw-numeric-spacing: ; --tw-numeric-fraction: ; --tw-ring-inset: ; --tw-ring-offset-width: 0px; --tw-ring-offset-color: #fff; --tw-ring-color: hsl(var(--accent-secondary-100)/1); --tw-ring-offset-shadow: 0 0 #0000; --tw-ring-shadow: 0 0 #0000; --tw-shadow: 0 0 #0000; --tw-shadow-colored: 0 0 #0000; --tw-blur: ; --tw-brightness: ; --tw-contrast: ; --tw-grayscale: ; --tw-hue-rotate: ; --tw-invert: ; --tw-saturate: ; --tw-sepia: ; --tw-drop-shadow: ; --tw-backdrop-blur: ; --tw-backdrop-brightness: ; --tw-backdrop-contrast: ; --tw-backdrop-grayscale: ; --tw-backdrop-hue-rotate: ; --tw-backdrop-invert: ; --tw-backdrop-opacity: ; --tw-backdrop-saturate: ; --tw-backdrop-sepia: ; --tw-contain-size: ; --tw-contain-layout: ; --tw-contain-paint: ; --tw-contain-style: ; outline-color: hsl(var(--accent-main-100));&quot; class=&quot;token text&quot;&gt;[currentStroke]&lt;/span&gt;&lt;span style=&quot;box-sizing: border-box; border-width: 0px; border-style: solid; border-color: hsl(var(--border-100)); border-image: initial; --tw-border-spacing-x: 0; --tw-border-spacing-y: 0; --tw-translate-x: 0; --tw-translate-y: 0; --tw-rotate: 0; --tw-skew-x: 0; --tw-skew-y: 0; --tw-scale-x: 1; --tw-scale-y: 1; --tw-pan-x: ; --tw-pan-y: ; --tw-pinch-zoom: ; --tw-scroll-snap-strictness: proximity; --tw-gradient-from-position: ; --tw-gradient-via-position: ; --tw-gradient-to-position: ; --tw-ordinal: ; --tw-slashed-zero: ; --tw-numeric-figure: ; --tw-numeric-spacing: ; --tw-numeric-fraction: ; --tw-ring-inset: ; --tw-ring-offset-width: 0px; --tw-ring-offset-color: #fff; --tw-ring-color: hsl(var(--accent-secondary-100)/1); --tw-ring-offset-shadow: 0 0 #0000; --tw-ring-shadow: 0 0 #0000; --tw-shadow: 0 0 #0000; --tw-shadow-colored: 0 0 #0000; --tw-blur: ; --tw-brightness: ; --tw-contrast: ; --tw-grayscale: ; --tw-hue-rotate: ; --tw-invert: ; --tw-saturate: ; --tw-sepia: ; --tw-drop-shadow: ; --tw-backdrop-blur: ; --tw-backdrop-brightness: ; --tw-backdrop-contrast: ; --tw-backdrop-grayscale: ; --tw-backdrop-hue-rotate: ; --tw-backdrop-invert: ; --tw-backdrop-opacity: ; --tw-backdrop-saturate: ; --tw-backdrop-sepia: ; --tw-contain-size: ; --tw-contain-layout: ; --tw-contain-paint: ; --tw-contain-style: ; outline-color: hsl(var(--accent-main-100));&quot;&gt;.x&lt;br/&gt;&lt;/span&gt;&lt;/span&gt;&lt;span style=&quot;box-sizing: border-box; border-width: 0px; border-style: solid; border-color: hsl(var(--border-100)); border-image: initial; --tw-border-spacing-x: 0; --tw-border-spacing-y: 0; --tw-translate-x: 0; --tw-translate-y: 0; --tw-rotate: 0; --tw-skew-x: 0; --tw-skew-y: 0; --tw-scale-x: 1; --tw-scale-y: 1; --tw-pan-x: ; --tw-pan-y: ; --tw-pinch-zoom: ; --tw-scroll-snap-strictness: proximity; --tw-gradient-from-position: ; --tw-gradient-via-position: ; --tw-gradient-to-position: ; --tw-ordinal: ; --tw-slashed-zero: ; --tw-numeric-figure: ; --tw-numeric-spacing: ; --tw-numeric-fraction: ; --tw-ring-inset: ; --tw-ring-offset-width: 0px; --tw-ring-offset-color: #fff; --tw-ring-color: hsl(var(--accent-secondary-100)/1); --tw-ring-offset-shadow: 0 0 #0000; --tw-ring-shadow: 0 0 #0000; --tw-shadow: 0 0 #0000; --tw-shadow-colored: 0 0 #0000; --tw-blur: ; --tw-brightness: ; --tw-contrast: ; --tw-grayscale: ; --tw-hue-rotate: ; --tw-invert: ; --tw-saturate: ; --tw-sepia: ; --tw-drop-shadow: ; --tw-backdrop-blur: ; --tw-backdrop-brightness: ; --tw-backdrop-contrast: ; --tw-backdrop-grayscale: ; --tw-backdrop-hue-rotate: ; --tw-backdrop-invert: ; --tw-backdrop-opacity: ; --tw-backdrop-saturate: ; --tw-backdrop-sepia: ; --tw-contain-size: ; --tw-contain-layout: ; --tw-contain-paint: ; --tw-contain-style: ; outline-color: hsl(var(--accent-main-100)); font-family: &amp;quot;Fira Code&amp;quot;, &amp;quot;Fira Mono&amp;quot;, Menlo, Consolas, &amp;quot;DejaVu Sans Mono&amp;quot;, monospace; font-size: 14px; letter-spacing: -0.4px; white-space: pre;&quot;&gt;&lt;span style=&quot;box-sizing: border-box; border-width: 0px; border-style: solid; border-color: hsl(var(--border-100)); border-image: initial; --tw-border-spacing-x: 0; --tw-border-spacing-y: 0; --tw-translate-x: 0; --tw-translate-y: 0; --tw-rotate: 0; --tw-skew-x: 0; --tw-skew-y: 0; --tw-scale-x: 1; --tw-scale-y: 1; --tw-pan-x: ; --tw-pan-y: ; --tw-pinch-zoom: ; --tw-scroll-snap-strictness: proximity; --tw-gradient-from-position: ; --tw-gradient-via-position: ; --tw-gradient-to-position: ; --tw-ordinal: ; --tw-slashed-zero: ; --tw-numeric-figure: ; --tw-numeric-spacing: ; --tw-numeric-fraction: ; --tw-ring-inset: ; --tw-ring-offset-width: 0px; --tw-ring-offset-color: #fff; --tw-ring-color: hsl(var(--accent-secondary-100)/1); --tw-ring-offset-shadow: 0 0 #0000; --tw-ring-shadow: 0 0 #0000; --tw-shadow: 0 0 #0000; --tw-shadow-colored: 0 0 #0000; --tw-blur: ; --tw-brightness: ; --tw-contrast: ; --tw-grayscale: ; --tw-hue-rotate: ; --tw-invert: ; --tw-saturate: ; --tw-sepia: ; --tw-drop-shadow: ; --tw-backdrop-blur: ; --tw-backdrop-brightness: ; --tw-backdrop-contrast: ; --tw-backdrop-grayscale: ; --tw-backdrop-hue-rotate: ; --tw-backdrop-invert: ; --tw-backdrop-opacity: ; --tw-backdrop-saturate: ; --tw-backdrop-sepia: ; --tw-contain-size: ; --tw-contain-layout: ; --tw-contain-paint: ; --tw-contain-style: ; outline-color: hsl(var(--accent-main-100));&quot;&gt;        chars&lt;/span&gt;&lt;span style=&quot;box-sizing: border-box; border-width: 0px; border-style: solid; border-color: hsl(var(--border-100)); border-image: initial; --tw-border-spacing-x: 0; --tw-border-spacing-y: 0; --tw-translate-x: 0; --tw-translate-y: 0; --tw-rotate: 0; --tw-skew-x: 0; --tw-skew-y: 0; --tw-scale-x: 1; --tw-scale-y: 1; --tw-pan-x: ; --tw-pan-y: ; --tw-pinch-zoom: ; --tw-scroll-snap-strictness: proximity; --tw-gradient-from-position: ; --tw-gradient-via-position: ; --tw-gradient-to-position: ; --tw-ordinal: ; --tw-slashed-zero: ; --tw-numeric-figure: ; --tw-numeric-spacing: ; --tw-numeric-fraction: ; --tw-ring-inset: ; --tw-ring-offset-width: 0px; --tw-ring-offset-color: #fff; --tw-ring-color: hsl(var(--accent-secondary-100)/1); --tw-ring-offset-shadow: 0 0 #0000; --tw-ring-shadow: 0 0 #0000; --tw-shadow: 0 0 #0000; --tw-shadow-colored: 0 0 #0000; --tw-blur: ; --tw-brightness: ; --tw-contrast: ; --tw-grayscale: ; --tw-hue-rotate: ; --tw-invert: ; --tw-saturate: ; --tw-sepia: ; --tw-drop-shadow: ; --tw-backdrop-blur: ; --tw-backdrop-brightness: ; --tw-backdrop-contrast: ; --tw-backdrop-grayscale: ; --tw-backdrop-hue-rotate: ; --tw-backdrop-invert: ; --tw-backdrop-opacity: ; --tw-backdrop-saturate: ; --tw-backdrop-sepia: ; --tw-contain-size: ; --tw-contain-layout: ; --tw-contain-paint: ; --tw-contain-style: ; outline-color: hsl(var(--accent-main-100));&quot; class=&quot;token text&quot;&gt;[ascii]&lt;/span&gt;&lt;span style=&quot;box-sizing: border-box; border-width: 0px; border-style: solid; border-color: hsl(var(--border-100)); border-image: initial; --tw-border-spacing-x: 0; --tw-border-spacing-y: 0; --tw-translate-x: 0; --tw-translate-y: 0; --tw-rotate: 0; --tw-skew-x: 0; --tw-skew-y: 0; --tw-scale-x: 1; --tw-scale-y: 1; --tw-pan-x: ; --tw-pan-y: ; --tw-pinch-zoom: ; --tw-scroll-snap-strictness: proximity; --tw-gradient-from-position: ; --tw-gradient-via-position: ; --tw-gradient-to-position: ; --tw-ordinal: ; --tw-slashed-zero: ; --tw-numeric-figure: ; --tw-numeric-spacing: ; --tw-numeric-fraction: ; --tw-ring-inset: ; --tw-ring-offset-width: 0px; --tw-ring-offset-color: #fff; --tw-ring-color: hsl(var(--accent-secondary-100)/1); --tw-ring-offset-shadow: 0 0 #0000; --tw-ring-shadow: 0 0 #0000; --tw-shadow: 0 0 #0000; --tw-shadow-colored: 0 0 #0000; --tw-blur: ; --tw-brightness: ; --tw-contrast: ; --tw-grayscale: ; --tw-hue-rotate: ; --tw-invert: ; --tw-saturate: ; --tw-sepia: ; --tw-drop-shadow: ; --tw-backdrop-blur: ; --tw-backdrop-brightness: ; --tw-backdrop-contrast: ; --tw-backdrop-grayscale: ; --tw-backdrop-hue-rotate: ; --tw-backdrop-invert: ; --tw-backdrop-opacity: ; --tw-backdrop-saturate: ; --tw-backdrop-sepia: ; --tw-contain-size: ; --tw-contain-layout: ; --tw-contain-paint: ; --tw-contain-style: ; outline-color: hsl(var(--accent-main-100));&quot;&gt;.strokes&lt;/span&gt;&lt;span style=&quot;box-sizing: border-box; border-width: 0px; border-style: solid; border-color: hsl(var(--border-100)); border-image: initial; --tw-border-spacing-x: 0; --tw-border-spacing-y: 0; --tw-translate-x: 0; --tw-translate-y: 0; --tw-rotate: 0; --tw-skew-x: 0; --tw-skew-y: 0; --tw-scale-x: 1; --tw-scale-y: 1; --tw-pan-x: ; --tw-pan-y: ; --tw-pinch-zoom: ; --tw-scroll-snap-strictness: proximity; --tw-gradient-from-position: ; --tw-gradient-via-position: ; --tw-gradient-to-position: ; --tw-ordinal: ; --tw-slashed-zero: ; --tw-numeric-figure: ; --tw-numeric-spacing: ; --tw-numeric-fraction: ; --tw-ring-inset: ; --tw-ring-offset-width: 0px; --tw-ring-offset-color: #fff; --tw-ring-color: hsl(var(--accent-secondary-100)/1); --tw-ring-offset-shadow: 0 0 #0000; --tw-ring-shadow: 0 0 #0000; --tw-shadow: 0 0 #0000; --tw-shadow-colored: 0 0 #0000; --tw-blur: ; --tw-brightness: ; --tw-contrast: ; --tw-grayscale: ; --tw-hue-rotate: ; --tw-invert: ; --tw-saturate: ; --tw-sepia: ; --tw-drop-shadow: ; --tw-backdrop-blur: ; --tw-backdrop-brightness: ; --tw-backdrop-contrast: ; --tw-backdrop-grayscale: ; --tw-backdrop-hue-rotate: ; --tw-backdrop-invert: ; --tw-backdrop-opacity: ; --tw-backdrop-saturate: ; --tw-backdrop-sepia: ; --tw-contain-size: ; --tw-contain-layout: ; --tw-contain-paint: ; --tw-contain-style: ; outline-color: hsl(var(--accent-main-100));&quot; class=&quot;token text&quot;&gt;[currentStroke]&lt;/span&gt;&lt;span style=&quot;box-sizing: border-box; border-width: 0px; border-style: solid; border-color: hsl(var(--border-100)); border-image: initial; --tw-border-spacing-x: 0; --tw-border-spacing-y: 0; --tw-translate-x: 0; --tw-translate-y: 0; --tw-rotate: 0; --tw-skew-x: 0; --tw-skew-y: 0; --tw-scale-x: 1; --tw-scale-y: 1; --tw-pan-x: ; --tw-pan-y: ; --tw-pinch-zoom: ; --tw-scroll-snap-strictness: proximity; --tw-gradient-from-position: ; --tw-gradient-via-position: ; --tw-gradient-to-position: ; --tw-ordinal: ; --tw-slashed-zero: ; --tw-numeric-figure: ; --tw-numeric-spacing: ; --tw-numeric-fraction: ; --tw-ring-inset: ; --tw-ring-offset-width: 0px; --tw-ring-offset-color: #fff; --tw-ring-color: hsl(var(--accent-secondary-100)/1); --tw-ring-offset-shadow: 0 0 #0000; --tw-ring-shadow: 0 0 #0000; --tw-shadow: 0 0 #0000; --tw-shadow-colored: 0 0 #0000; --tw-blur: ; --tw-brightness: ; --tw-contrast: ; --tw-grayscale: ; --tw-hue-rotate: ; --tw-invert: ; --tw-saturate: ; --tw-sepia: ; --tw-drop-shadow: ; --tw-backdrop-blur: ; --tw-backdrop-brightness: ; --tw-backdrop-contrast: ; --tw-backdrop-grayscale: ; --tw-backdrop-hue-rotate: ; --tw-backdrop-invert: ; --tw-backdrop-opacity: ; --tw-backdrop-saturate: ; --tw-backdrop-sepia: ; --tw-contain-size: ; --tw-contain-layout: ; --tw-contain-paint: ; --tw-contain-style: ; outline-color: hsl(var(--accent-main-100));&quot;&gt;.y&lt;br/&gt;&lt;/span&gt;&lt;/span&gt;&lt;span style=&quot;box-sizing: border-box; border-width: 0px; border-style: solid; border-color: hsl(var(--border-100)); border-image: initial; --tw-border-spacing-x: 0; --tw-border-spacing-y: 0; --tw-translate-x: 0; --tw-translate-y: 0; --tw-rotate: 0; --tw-skew-x: 0; --tw-skew-y: 0; --tw-scale-x: 1; --tw-scale-y: 1; --tw-pan-x: ; --tw-pan-y: ; --tw-pinch-zoom: ; --tw-scroll-snap-strictness: proximity; --tw-gradient-from-position: ; --tw-gradient-via-position: ; --tw-gradient-to-position: ; --tw-ordinal: ; --tw-slashed-zero: ; --tw-numeric-figure: ; --tw-numeric-spacing: ; --tw-numeric-fraction: ; --tw-ring-inset: ; --tw-ring-offset-width: 0px; --tw-ring-offset-color: #fff; --tw-ring-color: hsl(var(--accent-secondary-100)/1); --tw-ring-offset-shadow: 0 0 #0000; --tw-ring-shadow: 0 0 #0000; --tw-shadow: 0 0 #0000; --tw-shadow-colored: 0 0 #0000; --tw-blur: ; --tw-brightness: ; --tw-contrast: ; --tw-grayscale: ; --tw-hue-rotate: ; --tw-invert: ; --tw-saturate: ; --tw-sepia: ; --tw-drop-shadow: ; --tw-backdrop-blur: ; --tw-backdrop-brightness: ; --tw-backdrop-contrast: ; --tw-backdrop-grayscale: ; --tw-backdrop-hue-rotate: ; --tw-backdrop-invert: ; --tw-backdrop-opacity: ; --tw-backdrop-saturate: ; --tw-backdrop-sepia: ; --tw-contain-size: ; --tw-contain-layout: ; --tw-contain-paint: ; --tw-contain-style: ; outline-color: hsl(var(--accent-main-100)); font-family: &amp;quot;Fira Code&amp;quot;, &amp;quot;Fira Mono&amp;quot;, Menlo, Consolas, &amp;quot;DejaVu Sans Mono&amp;quot;, monospace; font-size: 14px; letter-spacing: -0.4px; white-space: pre;&quot;&gt;&lt;span style=&quot;box-sizing: border-box; border-width: 0px; border-style: solid; border-color: hsl(var(--border-100)); border-image: initial; --tw-border-spacing-x: 0; --tw-border-spacing-y: 0; --tw-translate-x: 0; --tw-translate-y: 0; --tw-rotate: 0; --tw-skew-x: 0; --tw-skew-y: 0; --tw-scale-x: 1; --tw-scale-y: 1; --tw-pan-x: ; --tw-pan-y: ; --tw-pinch-zoom: ; --tw-scroll-snap-strictness: proximity; --tw-gradient-from-position: ; --tw-gradient-via-position: ; --tw-gradient-to-position: ; --tw-ordinal: ; --tw-slashed-zero: ; --tw-numeric-figure: ; --tw-numeric-spacing: ; --tw-numeric-fraction: ; --tw-ring-inset: ; --tw-ring-offset-width: 0px; --tw-ring-offset-color: #fff; --tw-ring-color: hsl(var(--accent-secondary-100)/1); --tw-ring-offset-shadow: 0 0 #0000; --tw-ring-shadow: 0 0 #0000; --tw-shadow: 0 0 #0000; --tw-shadow-colored: 0 0 #0000; --tw-blur: ; --tw-brightness: ; --tw-contrast: ; --tw-grayscale: ; --tw-hue-rotate: ; --tw-invert: ; --tw-saturate: ; --tw-sepia: ; --tw-drop-shadow: ; --tw-backdrop-blur: ; --tw-backdrop-brightness: ; --tw-backdrop-contrast: ; --tw-backdrop-grayscale: ; --tw-backdrop-hue-rotate: ; --tw-backdrop-invert: ; --tw-backdrop-opacity: ; --tw-backdrop-saturate: ; --tw-backdrop-sepia: ; --tw-contain-size: ; --tw-contain-layout: ; --tw-contain-paint: ; --tw-contain-style: ; outline-color: hsl(var(--accent-main-100));&quot;&gt;        chars&lt;/span&gt;&lt;span style=&quot;box-sizing: border-box; border-width: 0px; border-style: solid; border-color: hsl(var(--border-100)); border-image: initial; --tw-border-spacing-x: 0; --tw-border-spacing-y: 0; --tw-translate-x: 0; --tw-translate-y: 0; --tw-rotate: 0; --tw-skew-x: 0; --tw-skew-y: 0; --tw-scale-x: 1; --tw-scale-y: 1; --tw-pan-x: ; --tw-pan-y: ; --tw-pinch-zoom: ; --tw-scroll-snap-strictness: proximity; --tw-gradient-from-position: ; --tw-gradient-via-position: ; --tw-gradient-to-position: ; --tw-ordinal: ; --tw-slashed-zero: ; --tw-numeric-figure: ; --tw-numeric-spacing: ; --tw-numeric-fraction: ; --tw-ring-inset: ; --tw-ring-offset-width: 0px; --tw-ring-offset-color: #fff; --tw-ring-color: hsl(var(--accent-secondary-100)/1); --tw-ring-offset-shadow: 0 0 #0000; --tw-ring-shadow: 0 0 #0000; --tw-shadow: 0 0 #0000; --tw-shadow-colored: 0 0 #0000; --tw-blur: ; --tw-brightness: ; --tw-contrast: ; --tw-grayscale: ; --tw-hue-rotate: ; --tw-invert: ; --tw-saturate: ; --tw-sepia: ; --tw-drop-shadow: ; --tw-backdrop-blur: ; --tw-backdrop-brightness: ; --tw-backdrop-contrast: ; --tw-backdrop-grayscale: ; --tw-backdrop-hue-rotate: ; --tw-backdrop-invert: ; --tw-backdrop-opacity: ; --tw-backdrop-saturate: ; --tw-backdrop-sepia: ; --tw-contain-size: ; --tw-contain-layout: ; --tw-contain-paint: ; --tw-contain-style: ; outline-color: hsl(var(--accent-main-100));&quot; class=&quot;token text&quot;&gt;[ascii]&lt;/span&gt;&lt;span style=&quot;box-sizing: border-box; border-width: 0px; border-style: solid; border-color: hsl(var(--border-100)); border-image: initial; --tw-border-spacing-x: 0; --tw-border-spacing-y: 0; --tw-translate-x: 0; --tw-translate-y: 0; --tw-rotate: 0; --tw-skew-x: 0; --tw-skew-y: 0; --tw-scale-x: 1; --tw-scale-y: 1; --tw-pan-x: ; --tw-pan-y: ; --tw-pinch-zoom: ; --tw-scroll-snap-strictness: proximity; --tw-gradient-from-position: ; --tw-gradient-via-position: ; --tw-gradient-to-position: ; --tw-ordinal: ; --tw-slashed-zero: ; --tw-numeric-figure: ; --tw-numeric-spacing: ; --tw-numeric-fraction: ; --tw-ring-inset: ; --tw-ring-offset-width: 0px; --tw-ring-offset-color: #fff; --tw-ring-color: hsl(var(--accent-secondary-100)/1); --tw-ring-offset-shadow: 0 0 #0000; --tw-ring-shadow: 0 0 #0000; --tw-shadow: 0 0 #0000; --tw-shadow-colored: 0 0 #0000; --tw-blur: ; --tw-brightness: ; --tw-contrast: ; --tw-grayscale: ; --tw-hue-rotate: ; --tw-invert: ; --tw-saturate: ; --tw-sepia: ; --tw-drop-shadow: ; --tw-backdrop-blur: ; --tw-backdrop-brightness: ; --tw-backdrop-contrast: ; --tw-backdrop-grayscale: ; --tw-backdrop-hue-rotate: ; --tw-backdrop-invert: ; --tw-backdrop-opacity: ; --tw-backdrop-saturate: ; --tw-backdrop-sepia: ; --tw-contain-size: ; --tw-contain-layout: ; --tw-contain-paint: ; --tw-contain-style: ; outline-color: hsl(var(--accent-main-100));&quot;&gt;.strokes&lt;/span&gt;&lt;span style=&quot;box-sizing: border-box; border-width: 0px; border-style: solid; border-color: hsl(var(--border-100)); border-image: initial; --tw-border-spacing-x: 0; --tw-border-spacing-y: 0; --tw-translate-x: 0; --tw-translate-y: 0; --tw-rotate: 0; --tw-skew-x: 0; --tw-skew-y: 0; --tw-scale-x: 1; --tw-scale-y: 1; --tw-pan-x: ; --tw-pan-y: ; --tw-pinch-zoom: ; --tw-scroll-snap-strictness: proximity; --tw-gradient-from-position: ; --tw-gradient-via-position: ; --tw-gradient-to-position: ; --tw-ordinal: ; --tw-slashed-zero: ; --tw-numeric-figure: ; --tw-numeric-spacing: ; --tw-numeric-fraction: ; --tw-ring-inset: ; --tw-ring-offset-width: 0px; --tw-ring-offset-color: #fff; --tw-ring-color: hsl(var(--accent-secondary-100)/1); --tw-ring-offset-shadow: 0 0 #0000; --tw-ring-shadow: 0 0 #0000; --tw-shadow: 0 0 #0000; --tw-shadow-colored: 0 0 #0000; --tw-blur: ; --tw-brightness: ; --tw-contrast: ; --tw-grayscale: ; --tw-hue-rotate: ; --tw-invert: ; --tw-saturate: ; --tw-sepia: ; --tw-drop-shadow: ; --tw-backdrop-blur: ; --tw-backdrop-brightness: ; --tw-backdrop-contrast: ; --tw-backdrop-grayscale: ; --tw-backdrop-hue-rotate: ; --tw-backdrop-invert: ; --tw-backdrop-opacity: ; --tw-backdrop-saturate: ; --tw-backdrop-sepia: ; --tw-contain-size: ; --tw-contain-layout: ; --tw-contain-paint: ; --tw-contain-style: ; outline-color: hsl(var(--accent-main-100));&quot; class=&quot;token text&quot;&gt;[currentStroke]&lt;/span&gt;&lt;span style=&quot;box-sizing: border-box; border-width: 0px; border-style: solid; border-color: hsl(var(--border-100)); border-image: initial; --tw-border-spacing-x: 0; --tw-border-spacing-y: 0; --tw-translate-x: 0; --tw-translate-y: 0; --tw-rotate: 0; --tw-skew-x: 0; --tw-skew-y: 0; --tw-scale-x: 1; --tw-scale-y: 1; --tw-pan-x: ; --tw-pan-y: ; --tw-pinch-zoom: ; --tw-scroll-snap-strictness: proximity; --tw-gradient-from-position: ; --tw-gradient-via-position: ; --tw-gradient-to-position: ; --tw-ordinal: ; --tw-slashed-zero: ; --tw-numeric-figure: ; --tw-numeric-spacing: ; --tw-numeric-fraction: ; --tw-ring-inset: ; --tw-ring-offset-width: 0px; --tw-ring-offset-color: #fff; --tw-ring-color: hsl(var(--accent-secondary-100)/1); --tw-ring-offset-shadow: 0 0 #0000; --tw-ring-shadow: 0 0 #0000; --tw-shadow: 0 0 #0000; --tw-shadow-colored: 0 0 #0000; --tw-blur: ; --tw-brightness: ; --tw-contrast: ; --tw-grayscale: ; --tw-hue-rotate: ; --tw-invert: ; --tw-saturate: ; --tw-sepia: ; --tw-drop-shadow: ; --tw-backdrop-blur: ; --tw-backdrop-brightness: ; --tw-backdrop-contrast: ; --tw-backdrop-grayscale: ; --tw-backdrop-hue-rotate: ; --tw-backdrop-invert: ; --tw-backdrop-opacity: ; --tw-backdrop-saturate: ; --tw-backdrop-sepia: ; --tw-contain-size: ; --tw-contain-layout: ; --tw-contain-paint: ; --tw-contain-style: ; outline-color: hsl(var(--accent-main-100));&quot;&gt;.pen&lt;/span&gt;&lt;/span&gt;" style="shape=note;whiteSpace=wrap;html=1;backgroundOutline=1;darkOpacity=0.05;align=left;fillColor=#fff2cc;strokeColor=#d6b656;" parent="1" vertex="1">
          <mxGeometry x="204.19" y="455" width="390" height="100" as="geometry" />
        </mxCell>
        <mxCell id="Ag3rg4LRfrvqD565A-uZ-27" style="edgeStyle=orthogonalEdgeStyle;rounded=0;orthogonalLoop=1;jettySize=auto;html=1;exitX=0.5;exitY=1;exitDx=0;exitDy=0;entryX=0.5;entryY=0;entryDx=0;entryDy=0;" parent="1" source="c8WANCE2L0wFhHwTSPKx-25" target="CUD6jWlpT54n8mRUWq0n-36" edge="1">
          <mxGeometry relative="1" as="geometry">
            <mxPoint x="311" y="1356" as="targetPoint" />
          </mxGeometry>
        </mxCell>
        <mxCell id="Ag3rg4LRfrvqD565A-uZ-54" value="&lt;span style=&quot;font-size: 15px;&quot;&gt;fscanf()&lt;/span&gt;&lt;br style=&quot;font-size: 15px;&quot;&gt;&lt;span style=&quot;font-size: 15px;&quot;&gt;read character&lt;/span&gt;" style="edgeLabel;html=1;align=center;verticalAlign=middle;resizable=0;points=[];" parent="Ag3rg4LRfrvqD565A-uZ-27" vertex="1" connectable="0">
          <mxGeometry x="0.1612" y="-1" relative="1" as="geometry">
            <mxPoint y="-14" as="offset" />
          </mxGeometry>
        </mxCell>
        <mxCell id="c8WANCE2L0wFhHwTSPKx-25" value="Start reading text file" style="rounded=1;whiteSpace=wrap;html=1;" parent="1" vertex="1">
          <mxGeometry x="246.55" y="1176" width="120" height="60" as="geometry" />
        </mxCell>
        <mxCell id="Ag3rg4LRfrvqD565A-uZ-45" value="Call: calculateWordWidth()" style="swimlane;whiteSpace=wrap;html=1;fillColor=#ffe6cc;strokeColor=#d79b00;" parent="1" vertex="1">
          <mxGeometry x="53.05" y="1386" width="507" height="550" as="geometry" />
        </mxCell>
        <mxCell id="Ag3rg4LRfrvqD565A-uZ-41" style="edgeStyle=orthogonalEdgeStyle;rounded=0;orthogonalLoop=1;jettySize=auto;html=1;exitX=1;exitY=1;exitDx=0;exitDy=0;entryX=0.5;entryY=0;entryDx=0;entryDy=0;curved=1;" parent="Ag3rg4LRfrvqD565A-uZ-45" source="Ag3rg4LRfrvqD565A-uZ-18" target="Ag3rg4LRfrvqD565A-uZ-32" edge="1">
          <mxGeometry relative="1" as="geometry" />
        </mxCell>
        <mxCell id="Ag3rg4LRfrvqD565A-uZ-18" value="CharLoop" style="rounded=1;whiteSpace=wrap;html=1;" parent="Ag3rg4LRfrvqD565A-uZ-45" vertex="1">
          <mxGeometry x="162" y="177" width="87" height="34" as="geometry" />
        </mxCell>
        <mxCell id="Ag3rg4LRfrvqD565A-uZ-31" style="edgeStyle=orthogonalEdgeStyle;rounded=0;orthogonalLoop=1;jettySize=auto;html=1;exitX=0.5;exitY=1;exitDx=0;exitDy=0;curved=1;" parent="Ag3rg4LRfrvqD565A-uZ-45" source="Ag3rg4LRfrvqD565A-uZ-32" target="Ag3rg4LRfrvqD565A-uZ-35" edge="1">
          <mxGeometry relative="1" as="geometry">
            <mxPoint x="269" y="417.400146484375" as="targetPoint" />
          </mxGeometry>
        </mxCell>
        <mxCell id="Ag3rg4LRfrvqD565A-uZ-32" value="IsSpace" style="rounded=1;whiteSpace=wrap;html=1;" parent="Ag3rg4LRfrvqD565A-uZ-45" vertex="1">
          <mxGeometry x="240.35000000000002" y="248" width="70.05" height="31" as="geometry" />
        </mxCell>
        <mxCell id="Ag3rg4LRfrvqD565A-uZ-33" style="edgeStyle=orthogonalEdgeStyle;rounded=0;orthogonalLoop=1;jettySize=auto;html=1;exitX=0;exitY=1;exitDx=0;exitDy=0;curved=1;" parent="Ag3rg4LRfrvqD565A-uZ-45" source="Ag3rg4LRfrvqD565A-uZ-18" target="Ag3rg4LRfrvqD565A-uZ-37" edge="1">
          <mxGeometry relative="1" as="geometry">
            <mxPoint x="95.93548387096769" y="448.90324943296355" as="targetPoint" />
            <mxPoint x="97" y="236" as="sourcePoint" />
          </mxGeometry>
        </mxCell>
        <mxCell id="Ag3rg4LRfrvqD565A-uZ-35" value="CalculateTotalWidth" style="rounded=1;whiteSpace=wrap;html=1;" parent="Ag3rg4LRfrvqD565A-uZ-45" vertex="1">
          <mxGeometry x="308.45" y="360" width="129.45" height="45" as="geometry" />
        </mxCell>
        <mxCell id="Ag3rg4LRfrvqD565A-uZ-55" style="edgeStyle=orthogonalEdgeStyle;rounded=0;orthogonalLoop=1;jettySize=auto;html=1;exitX=0.5;exitY=1;exitDx=0;exitDy=0;entryX=0;entryY=0.5;entryDx=0;entryDy=0;" parent="Ag3rg4LRfrvqD565A-uZ-45" source="Ag3rg4LRfrvqD565A-uZ-37" target="Ag3rg4LRfrvqD565A-uZ-38" edge="1">
          <mxGeometry relative="1" as="geometry" />
        </mxCell>
        <mxCell id="Ag3rg4LRfrvqD565A-uZ-56" value="n++ (count letters in word)" style="edgeLabel;html=1;align=center;verticalAlign=middle;resizable=0;points=[];" parent="Ag3rg4LRfrvqD565A-uZ-55" vertex="1" connectable="0">
          <mxGeometry x="-0.2037" y="-1" relative="1" as="geometry">
            <mxPoint as="offset" />
          </mxGeometry>
        </mxCell>
        <mxCell id="Ag3rg4LRfrvqD565A-uZ-37" value="IsLetter" style="rounded=1;whiteSpace=wrap;html=1;" parent="Ag3rg4LRfrvqD565A-uZ-45" vertex="1">
          <mxGeometry x="58" y="248" width="81" height="39" as="geometry" />
        </mxCell>
        <mxCell id="Ag3rg4LRfrvqD565A-uZ-42" style="edgeStyle=orthogonalEdgeStyle;rounded=0;orthogonalLoop=1;jettySize=auto;html=1;exitX=0.75;exitY=0;exitDx=0;exitDy=0;curved=1;entryX=0.5;entryY=1;entryDx=0;entryDy=0;" parent="Ag3rg4LRfrvqD565A-uZ-45" target="Ag3rg4LRfrvqD565A-uZ-18" edge="1">
          <mxGeometry relative="1" as="geometry">
            <mxPoint x="172" y="365" as="sourcePoint" />
            <mxPoint x="209" y="246" as="targetPoint" />
            <Array as="points">
              <mxPoint x="200" y="365" />
              <mxPoint x="200" y="279" />
              <mxPoint x="205" y="279" />
            </Array>
          </mxGeometry>
        </mxCell>
        <mxCell id="Ag3rg4LRfrvqD565A-uZ-43" value="Check next char" style="edgeLabel;html=1;align=center;verticalAlign=middle;resizable=0;points=[];" parent="Ag3rg4LRfrvqD565A-uZ-42" vertex="1" connectable="0">
          <mxGeometry x="0.4267" relative="1" as="geometry">
            <mxPoint x="-5" y="74" as="offset" />
          </mxGeometry>
        </mxCell>
        <mxCell id="Ag3rg4LRfrvqD565A-uZ-38" value="IncrementCount" style="whiteSpace=wrap;html=1;rounded=1;" parent="Ag3rg4LRfrvqD565A-uZ-45" vertex="1">
          <mxGeometry x="80" y="356" width="120" height="60" as="geometry" />
        </mxCell>
        <mxCell id="Ag3rg4LRfrvqD565A-uZ-58" style="edgeStyle=orthogonalEdgeStyle;rounded=0;orthogonalLoop=1;jettySize=auto;html=1;exitX=0.5;exitY=1;exitDx=0;exitDy=0;entryX=0.5;entryY=0;entryDx=0;entryDy=0;" parent="Ag3rg4LRfrvqD565A-uZ-45" source="Ag3rg4LRfrvqD565A-uZ-57" target="Ag3rg4LRfrvqD565A-uZ-18" edge="1">
          <mxGeometry relative="1" as="geometry" />
        </mxCell>
        <mxCell id="Ag3rg4LRfrvqD565A-uZ-59" value="Text" style="edgeLabel;html=1;align=center;verticalAlign=middle;resizable=0;points=[];" parent="Ag3rg4LRfrvqD565A-uZ-58" vertex="1" connectable="0">
          <mxGeometry x="-0.2148" y="-1" relative="1" as="geometry">
            <mxPoint as="offset" />
          </mxGeometry>
        </mxCell>
        <mxCell id="Ag3rg4LRfrvqD565A-uZ-67" value="Read each char" style="edgeLabel;html=1;align=center;verticalAlign=middle;resizable=0;points=[];" parent="Ag3rg4LRfrvqD565A-uZ-58" vertex="1" connectable="0">
          <mxGeometry x="-0.3421" y="3" relative="1" as="geometry">
            <mxPoint as="offset" />
          </mxGeometry>
        </mxCell>
        <mxCell id="Ag3rg4LRfrvqD565A-uZ-57" value="CountChars" style="rounded=1;whiteSpace=wrap;html=1;" parent="Ag3rg4LRfrvqD565A-uZ-45" vertex="1">
          <mxGeometry x="162" y="89" width="87" height="34" as="geometry" />
        </mxCell>
        <mxCell id="Ag3rg4LRfrvqD565A-uZ-116" style="edgeStyle=orthogonalEdgeStyle;rounded=0;orthogonalLoop=1;jettySize=auto;html=1;exitX=0.5;exitY=1;exitDx=0;exitDy=0;" parent="Ag3rg4LRfrvqD565A-uZ-45" source="Ag3rg4LRfrvqD565A-uZ-62" target="Ag3rg4LRfrvqD565A-uZ-57" edge="1">
          <mxGeometry relative="1" as="geometry" />
        </mxCell>
        <mxCell id="Ag3rg4LRfrvqD565A-uZ-117" value="Initialise n=0" style="edgeLabel;html=1;align=center;verticalAlign=middle;resizable=0;points=[];" parent="Ag3rg4LRfrvqD565A-uZ-116" vertex="1" connectable="0">
          <mxGeometry x="-0.1163" y="-1" relative="1" as="geometry">
            <mxPoint as="offset" />
          </mxGeometry>
        </mxCell>
        <mxCell id="Ag3rg4LRfrvqD565A-uZ-62" value="" style="ellipse;whiteSpace=wrap;html=1;rounded=1;" parent="Ag3rg4LRfrvqD565A-uZ-45" vertex="1">
          <mxGeometry x="198.25" y="37" width="14.5" height="15" as="geometry" />
        </mxCell>
        <mxCell id="Ag3rg4LRfrvqD565A-uZ-72" style="edgeStyle=orthogonalEdgeStyle;rounded=0;orthogonalLoop=1;jettySize=auto;html=1;entryX=0.5;entryY=0;entryDx=0;entryDy=0;exitX=1;exitY=0.5;exitDx=0;exitDy=0;" parent="1" source="Ag3rg4LRfrvqD565A-uZ-76" target="Ag3rg4LRfrvqD565A-uZ-77" edge="1">
          <mxGeometry relative="1" as="geometry">
            <Array as="points">
              <mxPoint x="521.55" y="2001.52" />
              <mxPoint x="638.55" y="2002.52" />
            </Array>
            <mxPoint x="599.55" y="1970.52" as="sourcePoint" />
            <mxPoint x="583.5200000000002" y="2052" as="targetPoint" />
          </mxGeometry>
        </mxCell>
        <mxCell id="Ag3rg4LRfrvqD565A-uZ-73" value="Too Wide" style="edgeLabel;html=1;align=center;verticalAlign=middle;resizable=0;points=[];" parent="Ag3rg4LRfrvqD565A-uZ-72" vertex="1" connectable="0">
          <mxGeometry x="0.2412" relative="1" as="geometry">
            <mxPoint x="-51" y="-1" as="offset" />
          </mxGeometry>
        </mxCell>
        <mxCell id="Ag3rg4LRfrvqD565A-uZ-74" value="Width OK" style="edgeLabel;html=1;align=center;verticalAlign=middle;resizable=0;points=[];" parent="1" vertex="1" connectable="0">
          <mxGeometry x="409.9974712643676" y="2094" as="geometry" />
        </mxCell>
        <mxCell id="Ag3rg4LRfrvqD565A-uZ-85" style="edgeStyle=orthogonalEdgeStyle;rounded=0;orthogonalLoop=1;jettySize=auto;html=1;exitX=0;exitY=1;exitDx=0;exitDy=0;" parent="1" source="Ag3rg4LRfrvqD565A-uZ-76" target="eq5a8P7IdpTRvWQ2f0uo-113" edge="1">
          <mxGeometry relative="1" as="geometry" />
        </mxCell>
        <mxCell id="Ag3rg4LRfrvqD565A-uZ-76" value="Does word fit?" style="rhombus;whiteSpace=wrap;html=1;fillColor=#f8cecc;strokeColor=#b85450;" parent="1" vertex="1">
          <mxGeometry x="353.52000000000004" y="1975" width="124" height="53" as="geometry" />
        </mxCell>
        <mxCell id="Ag3rg4LRfrvqD565A-uZ-86" style="edgeStyle=orthogonalEdgeStyle;rounded=0;orthogonalLoop=1;jettySize=auto;html=1;exitX=0.5;exitY=1;exitDx=0;exitDy=0;entryX=0.5;entryY=0;entryDx=0;entryDy=0;" parent="1" source="Ag3rg4LRfrvqD565A-uZ-77" target="eq5a8P7IdpTRvWQ2f0uo-113" edge="1">
          <mxGeometry relative="1" as="geometry">
            <Array as="points">
              <mxPoint x="615" y="2275" />
              <mxPoint x="402" y="2275" />
            </Array>
          </mxGeometry>
        </mxCell>
        <mxCell id="Ag3rg4LRfrvqD565A-uZ-87" value="Track current Y, for next word" style="edgeLabel;html=1;align=center;verticalAlign=middle;resizable=0;points=[];" parent="Ag3rg4LRfrvqD565A-uZ-86" vertex="1" connectable="0">
          <mxGeometry x="-0.0079" relative="1" as="geometry">
            <mxPoint y="1" as="offset" />
          </mxGeometry>
        </mxCell>
        <mxCell id="Ag3rg4LRfrvqD565A-uZ-77" value="call: handleLineBreak()" style="swimlane;whiteSpace=wrap;html=1;fillColor=#ffe6cc;strokeColor=#d79b00;" parent="1" vertex="1">
          <mxGeometry x="537.55" y="2014.52" width="154" height="240.52" as="geometry" />
        </mxCell>
        <mxCell id="Ag3rg4LRfrvqD565A-uZ-78" value="currentx to 0" style="rounded=1;whiteSpace=wrap;html=1;" parent="Ag3rg4LRfrvqD565A-uZ-77" vertex="1">
          <mxGeometry x="41.75" y="34.520000000000095" width="83.5" height="27" as="geometry" />
        </mxCell>
        <mxCell id="Ag3rg4LRfrvqD565A-uZ-79" value="set the y coordinate to the lin below" style="rounded=1;whiteSpace=wrap;html=1;" parent="Ag3rg4LRfrvqD565A-uZ-77" vertex="1">
          <mxGeometry x="24.610000000000014" y="129.51999999999998" width="117.78" height="27" as="geometry" />
        </mxCell>
        <mxCell id="Ag3rg4LRfrvqD565A-uZ-80" value="return updated coordinates" style="rounded=1;whiteSpace=wrap;html=1;" parent="Ag3rg4LRfrvqD565A-uZ-77" vertex="1">
          <mxGeometry x="24.61" y="194.52" width="117.78" height="36.48" as="geometry" />
        </mxCell>
        <mxCell id="Ag3rg4LRfrvqD565A-uZ-81" style="edgeStyle=orthogonalEdgeStyle;rounded=0;orthogonalLoop=1;jettySize=auto;html=1;exitX=0.5;exitY=1;exitDx=0;exitDy=0;" parent="Ag3rg4LRfrvqD565A-uZ-77" source="Ag3rg4LRfrvqD565A-uZ-79" target="Ag3rg4LRfrvqD565A-uZ-80" edge="1">
          <mxGeometry relative="1" as="geometry" />
        </mxCell>
        <mxCell id="Ag3rg4LRfrvqD565A-uZ-82" value="currenty = currentY - 5" style="edgeLabel;html=1;align=center;verticalAlign=middle;resizable=0;points=[];" parent="Ag3rg4LRfrvqD565A-uZ-81" vertex="1" connectable="0">
          <mxGeometry x="-0.1824" y="2" relative="1" as="geometry">
            <mxPoint as="offset" />
          </mxGeometry>
        </mxCell>
        <mxCell id="Ag3rg4LRfrvqD565A-uZ-83" style="edgeStyle=orthogonalEdgeStyle;rounded=0;orthogonalLoop=1;jettySize=auto;html=1;exitX=0.5;exitY=1;exitDx=0;exitDy=0;" parent="Ag3rg4LRfrvqD565A-uZ-77" source="Ag3rg4LRfrvqD565A-uZ-78" target="Ag3rg4LRfrvqD565A-uZ-79" edge="1">
          <mxGeometry relative="1" as="geometry">
            <mxPoint x="83.38043478260875" y="126" as="targetPoint" />
          </mxGeometry>
        </mxCell>
        <mxCell id="Ag3rg4LRfrvqD565A-uZ-84" value="Reset position&lt;br&gt;currentx=0" style="edgeLabel;html=1;align=center;verticalAlign=middle;resizable=0;points=[];" parent="Ag3rg4LRfrvqD565A-uZ-83" vertex="1" connectable="0">
          <mxGeometry x="-0.0062" y="-1" relative="1" as="geometry">
            <mxPoint x="1" as="offset" />
          </mxGeometry>
        </mxCell>
        <mxCell id="Ag3rg4LRfrvqD565A-uZ-68" style="edgeStyle=orthogonalEdgeStyle;rounded=0;orthogonalLoop=1;jettySize=auto;html=1;exitX=0.5;exitY=1;exitDx=0;exitDy=0;entryX=0.5;entryY=0;entryDx=0;entryDy=0;curved=1;" parent="1" source="Ag3rg4LRfrvqD565A-uZ-35" target="Ag3rg4LRfrvqD565A-uZ-76" edge="1">
          <mxGeometry relative="1" as="geometry">
            <mxPoint x="423.55" y="1969" as="targetPoint" />
          </mxGeometry>
        </mxCell>
        <mxCell id="Ag3rg4LRfrvqD565A-uZ-70" value="Return Scaled Width" style="edgeLabel;html=1;align=center;verticalAlign=middle;resizable=0;points=[];" parent="Ag3rg4LRfrvqD565A-uZ-68" vertex="1" connectable="0">
          <mxGeometry x="-0.2194" y="3" relative="1" as="geometry">
            <mxPoint x="-12" y="20" as="offset" />
          </mxGeometry>
        </mxCell>
        <mxCell id="Ag3rg4LRfrvqD565A-uZ-115" style="edgeStyle=orthogonalEdgeStyle;rounded=0;orthogonalLoop=1;jettySize=auto;html=1;exitX=1;exitY=0.5;exitDx=0;exitDy=0;entryX=1;entryY=0.5;entryDx=0;entryDy=0;" parent="1" source="Ag3rg4LRfrvqD565A-uZ-108" target="CUD6jWlpT54n8mRUWq0n-36" edge="1">
          <mxGeometry relative="1" as="geometry">
            <Array as="points">
              <mxPoint x="460" y="4158" />
              <mxPoint x="794" y="4158" />
              <mxPoint x="794" y="1322" />
            </Array>
          </mxGeometry>
        </mxCell>
        <mxCell id="Ag3rg4LRfrvqD565A-uZ-119" value="More words!" style="edgeLabel;html=1;align=center;verticalAlign=middle;resizable=0;points=[];" parent="Ag3rg4LRfrvqD565A-uZ-115" vertex="1" connectable="0">
          <mxGeometry x="-0.9216" y="4" relative="1" as="geometry">
            <mxPoint x="-4" y="4" as="offset" />
          </mxGeometry>
        </mxCell>
        <mxCell id="uqEPH_UNxIwibqMIHgzM-2" value="Returns 1" style="edgeLabel;html=1;align=center;verticalAlign=middle;resizable=0;points=[];" vertex="1" connectable="0" parent="Ag3rg4LRfrvqD565A-uZ-115">
          <mxGeometry x="-0.8828" y="-3" relative="1" as="geometry">
            <mxPoint as="offset" />
          </mxGeometry>
        </mxCell>
        <mxCell id="Ag3rg4LRfrvqD565A-uZ-121" value="call: returnToHome()" style="swimlane;whiteSpace=wrap;html=1;fillColor=#dae8fc;strokeColor=#6c8ebf;" parent="1" vertex="1">
          <mxGeometry x="282.25" y="4299" width="200" height="200" as="geometry" />
        </mxCell>
        <mxCell id="Ag3rg4LRfrvqD565A-uZ-122" style="edgeStyle=orthogonalEdgeStyle;rounded=0;orthogonalLoop=1;jettySize=auto;html=1;" parent="Ag3rg4LRfrvqD565A-uZ-121" source="Ag3rg4LRfrvqD565A-uZ-124" target="Ag3rg4LRfrvqD565A-uZ-125" edge="1">
          <mxGeometry relative="1" as="geometry">
            <mxPoint x="82" y="144.5" as="targetPoint" />
          </mxGeometry>
        </mxCell>
        <mxCell id="Ag3rg4LRfrvqD565A-uZ-123" value="Send G-code commands to robot&lt;br&gt;For it to move back to the &lt;br&gt;top of the global coordinates" style="edgeLabel;html=1;align=center;verticalAlign=middle;resizable=0;points=[];" parent="Ag3rg4LRfrvqD565A-uZ-122" vertex="1" connectable="0">
          <mxGeometry x="-0.1914" y="-2" relative="1" as="geometry">
            <mxPoint x="16" y="1" as="offset" />
          </mxGeometry>
        </mxCell>
        <mxCell id="Ag3rg4LRfrvqD565A-uZ-124" value="Return to Home" style="rounded=1;whiteSpace=wrap;html=1;" parent="Ag3rg4LRfrvqD565A-uZ-121" vertex="1">
          <mxGeometry x="31" y="29.5" width="95" height="26" as="geometry" />
        </mxCell>
        <mxCell id="Ag3rg4LRfrvqD565A-uZ-125" value="Return 1" style="rounded=1;whiteSpace=wrap;html=1;fillColor=#d5e8d4;strokeColor=#82b366;" parent="Ag3rg4LRfrvqD565A-uZ-121" vertex="1">
          <mxGeometry x="36" y="144.5" width="95" height="26" as="geometry" />
        </mxCell>
        <mxCell id="Ag3rg4LRfrvqD565A-uZ-126" style="edgeStyle=orthogonalEdgeStyle;rounded=0;orthogonalLoop=1;jettySize=auto;html=1;exitX=0.5;exitY=1;exitDx=0;exitDy=0;entryX=0.5;entryY=0;entryDx=0;entryDy=0;" parent="1" source="Ag3rg4LRfrvqD565A-uZ-108" target="Ag3rg4LRfrvqD565A-uZ-121" edge="1">
          <mxGeometry relative="1" as="geometry" />
        </mxCell>
        <mxCell id="Ag3rg4LRfrvqD565A-uZ-127" value="EOF" style="edgeLabel;html=1;align=center;verticalAlign=middle;resizable=0;points=[];" parent="Ag3rg4LRfrvqD565A-uZ-126" vertex="1" connectable="0">
          <mxGeometry x="-0.7162" y="-5" relative="1" as="geometry">
            <mxPoint x="4" y="5" as="offset" />
          </mxGeometry>
        </mxCell>
        <mxCell id="uqEPH_UNxIwibqMIHgzM-3" value="return 0" style="edgeLabel;html=1;align=center;verticalAlign=middle;resizable=0;points=[];" vertex="1" connectable="0" parent="Ag3rg4LRfrvqD565A-uZ-126">
          <mxGeometry x="-0.2418" relative="1" as="geometry">
            <mxPoint as="offset" />
          </mxGeometry>
        </mxCell>
        <mxCell id="Ag3rg4LRfrvqD565A-uZ-129" style="edgeStyle=orthogonalEdgeStyle;rounded=0;orthogonalLoop=1;jettySize=auto;html=1;exitX=0.5;exitY=1;exitDx=0;exitDy=0;entryX=0.506;entryY=0.082;entryDx=0;entryDy=0;entryPerimeter=0;" parent="1" source="Ag3rg4LRfrvqD565A-uZ-130" target="Ag3rg4LRfrvqD565A-uZ-132" edge="1">
          <mxGeometry relative="1" as="geometry">
            <mxPoint x="507.76" y="-380.26668294270837" as="targetPoint" />
            <mxPoint x="507.76" y="-419" as="sourcePoint" />
          </mxGeometry>
        </mxCell>
        <mxCell id="Ag3rg4LRfrvqD565A-uZ-130" value="Open &#39;SingleStrokeFile.txt&#39;" style="rounded=0;whiteSpace=wrap;html=1;fillColor=#f5f5f5;strokeColor=#666666;fontColor=#333333;" parent="1" vertex="1">
          <mxGeometry x="363.76" y="-470" width="120" height="60" as="geometry" />
        </mxCell>
        <mxCell id="Ag3rg4LRfrvqD565A-uZ-131" style="edgeStyle=orthogonalEdgeStyle;rounded=0;orthogonalLoop=1;jettySize=auto;html=1;exitX=0.5;exitY=1;exitDx=0;exitDy=0;entryX=0.5;entryY=0;entryDx=0;entryDy=0;" parent="1" source="Ag3rg4LRfrvqD565A-uZ-132" target="Ag3rg4LRfrvqD565A-uZ-133" edge="1">
          <mxGeometry relative="1" as="geometry">
            <mxPoint x="508.76" y="-259.46663411458337" as="targetPoint" />
          </mxGeometry>
        </mxCell>
        <mxCell id="Ag3rg4LRfrvqD565A-uZ-132" value="Does file open?" style="rhombus;whiteSpace=wrap;html=1;rounded=1;shadow=0;" parent="1" vertex="1">
          <mxGeometry x="451.76" y="-369" width="114" height="68" as="geometry" />
        </mxCell>
        <mxCell id="Ag3rg4LRfrvqD565A-uZ-133" value="Return 0" style="rounded=1;whiteSpace=wrap;html=1;fillColor=#f5f5f5;strokeColor=#666666;fontColor=#333333;" parent="1" vertex="1">
          <mxGeometry x="458.76" y="-265" width="100" height="39" as="geometry" />
        </mxCell>
        <mxCell id="Ag3rg4LRfrvqD565A-uZ-134" value="no" style="text;html=1;align=center;verticalAlign=middle;resizable=0;points=[];autosize=1;strokeColor=none;fillColor=none;" parent="1" vertex="1">
          <mxGeometry x="478.76" y="-303" width="31" height="26" as="geometry" />
        </mxCell>
        <mxCell id="Ag3rg4LRfrvqD565A-uZ-135" value="yes" style="text;html=1;align=center;verticalAlign=middle;resizable=0;points=[];autosize=1;strokeColor=none;fillColor=none;" parent="1" vertex="1">
          <mxGeometry x="377.76" y="-364" width="37" height="26" as="geometry" />
        </mxCell>
        <mxCell id="Ag3rg4LRfrvqD565A-uZ-136" style="edgeStyle=orthogonalEdgeStyle;rounded=0;orthogonalLoop=1;jettySize=auto;html=1;exitX=0.5;exitY=1;exitDx=0;exitDy=0;entryX=0.5;entryY=0;entryDx=0;entryDy=0;" parent="1" source="Ag3rg4LRfrvqD565A-uZ-138" target="Ag3rg4LRfrvqD565A-uZ-141" edge="1">
          <mxGeometry relative="1" as="geometry" />
        </mxCell>
        <mxCell id="Ag3rg4LRfrvqD565A-uZ-137" value="fscanf" style="edgeLabel;html=1;align=center;verticalAlign=middle;resizable=0;points=[];" parent="Ag3rg4LRfrvqD565A-uZ-136" vertex="1" connectable="0">
          <mxGeometry x="-0.4437" y="-1" relative="1" as="geometry">
            <mxPoint y="9" as="offset" />
          </mxGeometry>
        </mxCell>
        <mxCell id="Ag3rg4LRfrvqD565A-uZ-138" value="Read font data" style="rounded=1;whiteSpace=wrap;html=1;" parent="1" vertex="1">
          <mxGeometry x="248" y="-168" width="97" height="32" as="geometry" />
        </mxCell>
        <mxCell id="Ag3rg4LRfrvqD565A-uZ-139" style="edgeStyle=orthogonalEdgeStyle;rounded=0;orthogonalLoop=1;jettySize=auto;html=1;exitX=0.5;exitY=1;exitDx=0;exitDy=0;entryX=0.5;entryY=0;entryDx=0;entryDy=0;" parent="1" source="Ag3rg4LRfrvqD565A-uZ-141" target="Ag3rg4LRfrvqD565A-uZ-155" edge="1">
          <mxGeometry relative="1" as="geometry">
            <mxPoint x="296.33333333333326" y="-6.199991861979129" as="targetPoint" />
          </mxGeometry>
        </mxCell>
        <mxCell id="Ag3rg4LRfrvqD565A-uZ-140" value="calloc(1, FontData)" style="edgeLabel;html=1;align=center;verticalAlign=middle;resizable=0;points=[];" parent="Ag3rg4LRfrvqD565A-uZ-139" vertex="1" connectable="0">
          <mxGeometry x="-0.1125" relative="1" as="geometry">
            <mxPoint as="offset" />
          </mxGeometry>
        </mxCell>
        <mxCell id="Ag3rg4LRfrvqD565A-uZ-141" value="AllocateFontData" style="rounded=1;whiteSpace=wrap;html=1;" parent="1" vertex="1">
          <mxGeometry x="232.13" y="-88" width="128.75" height="37" as="geometry" />
        </mxCell>
        <mxCell id="Ag3rg4LRfrvqD565A-uZ-142" style="edgeStyle=orthogonalEdgeStyle;rounded=0;orthogonalLoop=1;jettySize=auto;html=1;exitX=0;exitY=1;exitDx=0;exitDy=0;entryX=0;entryY=0;entryDx=0;entryDy=0;curved=1;" parent="1" source="Ag3rg4LRfrvqD565A-uZ-144" target="Ag3rg4LRfrvqD565A-uZ-147" edge="1">
          <mxGeometry relative="1" as="geometry">
            <Array as="points">
              <mxPoint x="345.01" y="321" />
              <mxPoint x="345.01" y="379" />
            </Array>
          </mxGeometry>
        </mxCell>
        <mxCell id="Ag3rg4LRfrvqD565A-uZ-143" value="Read x,y,P" style="edgeLabel;html=1;align=center;verticalAlign=middle;resizable=0;points=[];" parent="Ag3rg4LRfrvqD565A-uZ-142" vertex="1" connectable="0">
          <mxGeometry x="0.1042" y="-1" relative="1" as="geometry">
            <mxPoint as="offset" />
          </mxGeometry>
        </mxCell>
        <mxCell id="Ag3rg4LRfrvqD565A-uZ-144" value="ReadStroke" style="whiteSpace=wrap;html=1;rounded=1;" parent="1" vertex="1">
          <mxGeometry x="372.64" y="296" width="77.5" height="25" as="geometry" />
        </mxCell>
        <mxCell id="Ag3rg4LRfrvqD565A-uZ-145" style="edgeStyle=orthogonalEdgeStyle;rounded=0;orthogonalLoop=1;jettySize=auto;html=1;exitX=1;exitY=0;exitDx=0;exitDy=0;entryX=1;entryY=1;entryDx=0;entryDy=0;curved=1;" parent="1" source="Ag3rg4LRfrvqD565A-uZ-147" target="Ag3rg4LRfrvqD565A-uZ-144" edge="1">
          <mxGeometry relative="1" as="geometry">
            <Array as="points">
              <mxPoint x="476.01" y="379" />
              <mxPoint x="476.01" y="321" />
            </Array>
          </mxGeometry>
        </mxCell>
        <mxCell id="Ag3rg4LRfrvqD565A-uZ-146" value="More strokes for Char" style="edgeLabel;html=1;align=center;verticalAlign=middle;resizable=0;points=[];" parent="Ag3rg4LRfrvqD565A-uZ-145" vertex="1" connectable="0">
          <mxGeometry x="-0.1238" y="2" relative="1" as="geometry">
            <mxPoint as="offset" />
          </mxGeometry>
        </mxCell>
        <mxCell id="Ag3rg4LRfrvqD565A-uZ-147" value="StroresStroke" style="whiteSpace=wrap;html=1;rounded=1;" parent="1" vertex="1">
          <mxGeometry x="363.76" y="379" width="95.5" height="27" as="geometry" />
        </mxCell>
        <mxCell id="Ag3rg4LRfrvqD565A-uZ-148" value="Success" style="whiteSpace=wrap;html=1;rounded=1;" parent="1" vertex="1">
          <mxGeometry x="508.5" y="151" width="64" height="30" as="geometry" />
        </mxCell>
        <mxCell id="Ag3rg4LRfrvqD565A-uZ-149" value="" style="edgeStyle=orthogonalEdgeStyle;rounded=0;orthogonalLoop=1;jettySize=auto;html=1;curved=1;entryX=0.25;entryY=0;entryDx=0;entryDy=0;exitX=0.5;exitY=1;exitDx=0;exitDy=0;" parent="1" source="Ag3rg4LRfrvqD565A-uZ-147" target="Ag3rg4LRfrvqD565A-uZ-155" edge="1">
          <mxGeometry relative="1" as="geometry">
            <mxPoint x="449" y="353" as="targetPoint" />
            <Array as="points">
              <mxPoint x="412" y="429" />
              <mxPoint x="195" y="429" />
              <mxPoint x="195" y="-2" />
              <mxPoint x="415" y="-2" />
            </Array>
          </mxGeometry>
        </mxCell>
        <mxCell id="Ag3rg4LRfrvqD565A-uZ-150" value="Character Complete" style="edgeLabel;html=1;align=center;verticalAlign=middle;resizable=0;points=[];" parent="Ag3rg4LRfrvqD565A-uZ-149" vertex="1" connectable="0">
          <mxGeometry x="-0.0643" y="-3" relative="1" as="geometry">
            <mxPoint x="126" y="187" as="offset" />
          </mxGeometry>
        </mxCell>
        <mxCell id="Ag3rg4LRfrvqD565A-uZ-151" value="" style="edgeStyle=orthogonalEdgeStyle;rounded=0;orthogonalLoop=1;jettySize=auto;html=1;curved=1;" parent="1" source="Ag3rg4LRfrvqD565A-uZ-155" target="Ag3rg4LRfrvqD565A-uZ-158" edge="1">
          <mxGeometry relative="1" as="geometry" />
        </mxCell>
        <mxCell id="Ag3rg4LRfrvqD565A-uZ-152" value="Read &quot;999 ASCII STROKES&quot;" style="edgeLabel;html=1;align=center;verticalAlign=middle;resizable=0;points=[];" parent="Ag3rg4LRfrvqD565A-uZ-151" vertex="1" connectable="0">
          <mxGeometry x="-0.1593" relative="1" as="geometry">
            <mxPoint x="8" y="38" as="offset" />
          </mxGeometry>
        </mxCell>
        <mxCell id="Ag3rg4LRfrvqD565A-uZ-153" style="edgeStyle=orthogonalEdgeStyle;rounded=0;orthogonalLoop=1;jettySize=auto;html=1;exitX=1;exitY=0.5;exitDx=0;exitDy=0;" parent="1" source="Ag3rg4LRfrvqD565A-uZ-155" target="Ag3rg4LRfrvqD565A-uZ-148" edge="1">
          <mxGeometry relative="1" as="geometry">
            <mxPoint x="592.4000000000001" y="98.40000000000009" as="targetPoint" />
          </mxGeometry>
        </mxCell>
        <mxCell id="Ag3rg4LRfrvqD565A-uZ-154" value="EOF Reached" style="edgeLabel;html=1;align=center;verticalAlign=middle;resizable=0;points=[];" parent="Ag3rg4LRfrvqD565A-uZ-153" vertex="1" connectable="0">
          <mxGeometry x="-0.2478" y="-3" relative="1" as="geometry">
            <mxPoint x="30" y="55" as="offset" />
          </mxGeometry>
        </mxCell>
        <mxCell id="Ag3rg4LRfrvqD565A-uZ-155" value="ReadMarker" style="rounded=1;whiteSpace=wrap;html=1;" parent="1" vertex="1">
          <mxGeometry x="389.13" y="17" width="103.25" height="34" as="geometry" />
        </mxCell>
        <mxCell id="Ag3rg4LRfrvqD565A-uZ-156" style="edgeStyle=orthogonalEdgeStyle;rounded=0;orthogonalLoop=1;jettySize=auto;html=1;exitX=0.5;exitY=1;exitDx=0;exitDy=0;" parent="1" source="Ag3rg4LRfrvqD565A-uZ-158" target="Ag3rg4LRfrvqD565A-uZ-159" edge="1">
          <mxGeometry relative="1" as="geometry" />
        </mxCell>
        <mxCell id="Ag3rg4LRfrvqD565A-uZ-157" value="New Character" style="edgeLabel;html=1;align=center;verticalAlign=middle;resizable=0;points=[];" parent="Ag3rg4LRfrvqD565A-uZ-156" vertex="1" connectable="0">
          <mxGeometry x="-0.1185" y="-1" relative="1" as="geometry">
            <mxPoint as="offset" />
          </mxGeometry>
        </mxCell>
        <mxCell id="Ag3rg4LRfrvqD565A-uZ-158" value="ProcessChar" style="whiteSpace=wrap;html=1;rounded=1;" parent="1" vertex="1">
          <mxGeometry x="260.88" y="103" width="77.5" height="25" as="geometry" />
        </mxCell>
        <mxCell id="Ag3rg4LRfrvqD565A-uZ-159" value="AllocateStrokes" style="whiteSpace=wrap;html=1;rounded=1;" parent="1" vertex="1">
          <mxGeometry x="252" y="186" width="95.5" height="27" as="geometry" />
        </mxCell>
        <mxCell id="Ag3rg4LRfrvqD565A-uZ-160" value="" style="edgeStyle=orthogonalEdgeStyle;rounded=0;orthogonalLoop=1;jettySize=auto;html=1;curved=1;entryX=0.5;entryY=0;entryDx=0;entryDy=0;exitX=0.5;exitY=1;exitDx=0;exitDy=0;" parent="1" source="Ag3rg4LRfrvqD565A-uZ-159" target="Ag3rg4LRfrvqD565A-uZ-144" edge="1">
          <mxGeometry relative="1" as="geometry">
            <mxPoint x="329" y="369" as="targetPoint" />
          </mxGeometry>
        </mxCell>
        <mxCell id="Ag3rg4LRfrvqD565A-uZ-161" value="calloc(numStrokes,Stroke)" style="edgeLabel;html=1;align=center;verticalAlign=middle;resizable=0;points=[];" parent="Ag3rg4LRfrvqD565A-uZ-160" vertex="1" connectable="0">
          <mxGeometry x="-0.0643" y="-3" relative="1" as="geometry">
            <mxPoint x="13" as="offset" />
          </mxGeometry>
        </mxCell>
        <mxCell id="Ag3rg4LRfrvqD565A-uZ-162" style="edgeStyle=orthogonalEdgeStyle;rounded=0;orthogonalLoop=1;jettySize=auto;html=1;exitX=0;exitY=0.5;exitDx=0;exitDy=0;curved=1;entryX=0.5;entryY=0;entryDx=0;entryDy=0;" parent="1" source="Ag3rg4LRfrvqD565A-uZ-132" target="Ag3rg4LRfrvqD565A-uZ-165" edge="1">
          <mxGeometry relative="1" as="geometry">
            <mxPoint x="246" y="74" as="targetPoint" />
          </mxGeometry>
        </mxCell>
        <mxCell id="Ag3rg4LRfrvqD565A-uZ-163" value="Return FontData" style="edgeLabel;html=1;align=center;verticalAlign=middle;resizable=0;points=[];" parent="1" vertex="1" connectable="0">
          <mxGeometry x="406" y="610" as="geometry">
            <mxPoint x="-6" y="-3" as="offset" />
          </mxGeometry>
        </mxCell>
        <mxCell id="Ag3rg4LRfrvqD565A-uZ-165" value="Call: storeFontData" style="swimlane;whiteSpace=wrap;html=1;fillColor=#ffe6cc;strokeColor=#d79b00;" parent="1" vertex="1">
          <mxGeometry x="162" y="-201" width="475" height="781" as="geometry" />
        </mxCell>
      </root>
    </mxGraphModel>
  </diagram>
</mxfile>
